<svg width="24" height="24" viewBox="0 0 24 24" fill="none" xmlns="http://www.w3.org/2000/svg">
<path d="M16.1543 4.00391C17.7394 4.08421 19 5.39489 19 7V16.8896C19 19.3917 16.1172 20.7941 14.1484 19.25L12 17.5654L9.85156 19.25C7.8828 20.7941 5.00004 19.3917 5 16.8896V7C5 5.34315 6.34315 4 8 4H16L16.1543 4.00391ZM8 6C7.44772 6 7 6.44772 7 7V16.8896C7.00004 17.7236 7.96094 18.1913 8.61719 17.6768L10.7656 15.9912C11.4903 15.4228 12.5097 15.4228 13.2344 15.9912L15.3828 17.6768C16.0391 18.1913 17 17.7236 17 16.8896V7C17 6.48232 16.6067 6.05621 16.1025 6.00488L16 6H8Z" fill="#3164FF"/>
</svg>
