<svg width="303" height="303" viewBox="0 0 303 303" fill="none" xmlns="http://www.w3.org/2000/svg">
<g style="mix-blend-mode:luminosity" opacity="0.34">
<ellipse cx="148" cy="239.5" rx="82" ry="17.5" fill="#EBEDF1"/>
<path d="M60.4912 218.385C52.3789 215.156 46.9862 211.646 49.385 204.113C51.1378 199.709 59.7571 196.355 67.8694 199.585C75.9817 202.814 83.9531 209.527 82.2003 213.93C80.4475 218.333 68.6035 221.614 60.4912 218.385Z" fill="#25272F" stroke="#131418" stroke-width="5" stroke-linejoin="round"/>
<path d="M61.5602 215.025C66.5695 213.49 78.4116 210.907 84.1002 215.657C88.4212 219.264 89.3028 232.636 84.0395 239.514C81.4253 242.929 74.4416 246.136 70.2025 243.231C65.9634 240.326 65.6536 235.211 65.6536 235.211C65.6536 235.211 54.0399 237.02 51.3553 228.258C48.6707 219.497 57.1088 216.389 61.5602 215.025Z" fill="#25272F" stroke="#131418" stroke-width="5" stroke-linejoin="round"/>
<path d="M141.545 59.1455C143.487 49.3961 148.893 46.3338 152.826 47.1172C156.734 47.896 155.539 55.7732 153.618 65.4395C160.252 60.5363 169.946 61.9154 172.601 64.3115C175.602 67.0211 166.103 69.5339 159.701 77.0371C159.639 77.11 159.575 77.1806 159.514 77.252C195.65 83.0687 223.014 110.595 223.014 144.617C223.014 149.516 224.11 154.377 226.239 158.789C230.06 166.704 232.165 175.257 232.165 184.117C232.165 202.734 225.546 222.641 210.811 235.117C196.154 247.527 172.846 251.604 149.867 252.07V252.072C149.856 252.072 149.844 252.072 149.832 252.071C149.821 252.072 149.809 252.072 149.798 252.072V252.07C126.819 251.604 103.511 247.527 88.8545 235.117C74.1196 222.641 67.5 202.734 67.5 184.117C67.5 175.257 69.6044 166.704 73.4248 158.789C75.5544 154.377 76.6523 149.516 76.6523 144.617C76.6523 109.68 105.507 81.5925 143.087 76.8301C141.103 72.8932 140.202 65.8894 141.545 59.1455Z" fill="#25272F"/>
<path d="M141.545 59.1455L139.093 58.6572L139.093 58.6572L141.545 59.1455ZM152.826 47.1172L153.315 44.6654L153.315 44.6653L152.826 47.1172ZM153.618 65.4395L151.166 64.9522C150.965 65.9651 151.407 66.9975 152.279 67.5506C153.151 68.1037 154.274 68.0637 155.104 67.4499L153.618 65.4395ZM172.601 64.3115L174.276 62.4558L174.276 62.4556L172.601 64.3115ZM159.701 77.0371L157.799 75.4145L157.799 75.4145L159.701 77.0371ZM159.514 77.252L157.62 75.6199C157.029 76.306 156.855 77.2582 157.165 78.1091C157.476 78.9599 158.222 79.5762 159.116 79.7202L159.514 77.252ZM223.014 144.617H220.514V144.617L223.014 144.617ZM226.239 158.789L223.988 159.876V159.876L226.239 158.789ZM232.165 184.117H234.665V184.117H232.165ZM210.811 235.117L212.426 237.025L212.426 237.025L210.811 235.117ZM149.867 252.07L149.816 249.571C148.456 249.598 147.367 250.709 147.367 252.07H149.867ZM149.867 252.072L149.818 254.572C150.489 254.585 151.138 254.328 151.617 253.857C152.097 253.387 152.367 252.744 152.367 252.072H149.867ZM149.832 252.071L149.881 249.572C149.848 249.571 149.814 249.571 149.781 249.572L149.832 252.071ZM149.798 252.072H147.298C147.298 252.744 147.568 253.387 148.048 253.858C148.528 254.328 149.176 254.585 149.848 254.572L149.798 252.072ZM149.798 252.07H152.298C152.298 250.709 151.209 249.598 149.849 249.571L149.798 252.07ZM88.8545 235.117L87.239 237.025L87.239 237.025L88.8545 235.117ZM67.5 184.117H65V184.117H67.5ZM73.4248 158.789L71.1734 157.702L71.1733 157.702L73.4248 158.789ZM76.6523 144.617L79.1523 144.617V144.617H76.6523ZM143.087 76.8301L143.401 79.3102C144.207 79.2082 144.913 78.7212 145.294 78.0044C145.675 77.2875 145.685 76.4301 145.319 75.705L143.087 76.8301ZM141.545 59.1455L143.997 59.6339C145.813 50.5147 150.384 49.1798 152.338 49.569L152.826 47.1172L153.315 44.6653C147.402 43.4878 141.16 48.2775 139.093 58.6572L141.545 59.1455ZM152.826 47.1172L152.338 49.569C152.376 49.5766 152.387 49.5833 152.381 49.5807C152.376 49.5778 152.372 49.5743 152.374 49.5763C152.378 49.5805 152.456 49.6531 152.554 49.8935C152.772 50.427 152.932 51.3867 152.908 52.907C152.862 55.9176 152.134 60.0813 151.166 64.9522L153.618 65.4395L156.07 65.9267C157.023 61.1313 157.853 56.5232 157.908 52.984C157.935 51.2294 157.781 49.4696 157.184 48.0051C156.535 46.4151 155.295 45.0599 153.315 44.6654L152.826 47.1172ZM153.618 65.4395L155.104 67.4499C157.871 65.4049 161.376 64.6101 164.58 64.6382C166.168 64.6521 167.615 64.869 168.771 65.1941C169.982 65.5347 170.668 65.9351 170.926 66.1675L172.601 64.3115L174.276 62.4556C173.205 61.4899 171.684 60.8193 170.124 60.3807C168.509 59.9265 166.619 59.6558 164.623 59.6383C160.658 59.6036 155.999 60.5709 152.132 63.429L153.618 65.4395ZM172.601 64.3115L170.925 66.1673C170.995 66.2301 170.697 65.9837 170.673 65.4379C170.652 64.9477 170.879 64.7223 170.775 64.8568C170.498 65.2143 169.765 65.7929 168.271 66.8097C165.567 68.6488 161.266 71.3516 157.799 75.4145L159.701 77.0371L161.603 78.6597C164.538 75.2194 168.187 72.9141 171.083 70.9437C172.389 70.0556 173.868 69.029 174.728 67.9189C175.192 67.3196 175.72 66.3947 175.668 65.2191C175.614 63.988 174.957 63.0704 174.276 62.4558L172.601 64.3115ZM159.701 77.0371L157.799 75.4145C157.694 75.5378 157.782 75.4323 157.62 75.6199L159.514 77.252L161.407 78.884C161.427 78.8608 161.448 78.8371 161.484 78.7971C161.515 78.7615 161.558 78.7125 161.603 78.6597L159.701 77.0371ZM159.514 77.252L159.116 79.7202C194.301 85.3837 220.514 112.068 220.514 144.617H223.014H225.514C225.514 109.122 197 80.7537 159.911 74.7837L159.514 77.252ZM223.014 144.617L220.514 144.617C220.514 149.887 221.692 155.12 223.988 159.876L226.239 158.789L228.491 157.702C226.527 153.634 225.514 149.145 225.514 144.617L223.014 144.617ZM226.239 158.789L223.988 159.876C227.657 167.477 229.665 175.66 229.665 184.117H232.165H234.665C234.665 174.854 232.463 165.932 228.491 157.702L226.239 158.789ZM232.165 184.117H229.665C229.665 202.226 223.216 221.338 209.195 233.209L210.811 235.117L212.426 237.025C227.875 223.944 234.665 203.241 234.665 184.117H232.165ZM210.811 235.117L209.195 233.209C195.239 245.025 172.701 249.107 149.816 249.571L149.867 252.07L149.918 254.57C172.991 254.102 197.068 250.028 212.426 237.025L210.811 235.117ZM149.867 252.07H147.367V252.072H149.867H152.367V252.07H149.867ZM149.867 252.072L149.917 249.573C149.924 249.573 149.929 249.573 149.931 249.573C149.932 249.573 149.933 249.573 149.929 249.573C149.927 249.573 149.92 249.573 149.913 249.573C149.905 249.572 149.894 249.572 149.881 249.572L149.832 252.071L149.783 254.571C149.776 254.571 149.771 254.571 149.769 254.57C149.768 254.57 149.767 254.57 149.77 254.571C149.772 254.571 149.779 254.571 149.786 254.571C149.794 254.571 149.805 254.572 149.818 254.572L149.867 252.072ZM149.832 252.071L149.781 249.572C149.768 249.572 149.757 249.572 149.749 249.573C149.742 249.573 149.735 249.573 149.733 249.573C149.73 249.573 149.731 249.573 149.733 249.573C149.735 249.573 149.74 249.573 149.748 249.573L149.798 252.072L149.848 254.572C149.861 254.572 149.872 254.571 149.88 254.571C149.888 254.571 149.894 254.571 149.897 254.57C149.9 254.57 149.899 254.57 149.898 254.57C149.896 254.57 149.89 254.571 149.883 254.571L149.832 252.071ZM149.798 252.072H152.298V252.07H149.798H147.298V252.072H149.798ZM149.798 252.07L149.849 249.571C126.964 249.107 104.426 245.026 90.47 233.209L88.8545 235.117L87.239 237.025C102.597 250.029 126.674 254.102 149.747 254.57L149.798 252.07ZM88.8545 235.117L90.47 233.209C76.4492 221.338 70 202.226 70 184.117H67.5H65C65 203.241 71.7899 223.944 87.239 237.025L88.8545 235.117ZM67.5 184.117H70C70 175.66 72.0076 167.477 75.6763 159.876L73.4248 158.789L71.1733 157.702C67.2012 165.932 65 174.854 65 184.117H67.5ZM73.4248 158.789L75.6762 159.876C77.9714 155.121 79.1523 149.888 79.1523 144.617L76.6523 144.617L74.1523 144.617C74.1523 149.145 73.1373 153.634 71.1734 157.702L73.4248 158.789ZM76.6523 144.617H79.1523C79.1523 111.196 106.798 83.949 143.401 79.3102L143.087 76.8301L142.773 74.3499C104.217 79.2361 74.1523 108.164 74.1523 144.617H76.6523ZM143.087 76.8301L145.319 75.705C143.641 72.375 142.736 65.9632 143.997 59.6338L141.545 59.1455L139.093 58.6572C137.667 65.8155 138.564 73.4113 140.854 77.9552L143.087 76.8301Z" fill="#131418"/>
<path d="M71.4717 157.231C73.3846 157.231 75.125 158.313 76.042 159.992C79.5418 166.4 88.6333 181.295 94.6289 175.3C97.659 172.27 103.2 172.482 105.394 176.163C111.677 186.71 122.943 201.596 134.69 197.552C138.697 196.173 142.578 192.654 145.442 189.503C147.839 186.866 152.358 186.866 154.755 189.503C157.62 192.654 161.501 196.173 165.507 197.552C177.254 201.596 188.52 186.71 194.804 176.163C196.997 172.482 202.538 172.27 205.568 175.3C211.564 181.295 220.655 166.4 224.155 159.992C225.001 158.444 226.546 157.406 228.281 157.253C228.35 157.403 228.419 157.553 228.49 157.701C232.462 165.931 234.665 174.853 234.665 184.116C234.665 203.24 227.875 223.943 212.426 237.024C197.068 250.028 172.991 254.1 149.918 254.568L149.917 254.567C149.905 254.568 149.894 254.568 149.882 254.568L149.883 254.569H149.896C149.894 254.569 149.887 254.57 149.88 254.57C149.872 254.571 149.861 254.57 149.848 254.57C149.842 254.57 149.837 254.569 149.832 254.569C149.827 254.569 149.822 254.57 149.816 254.57C149.804 254.57 149.793 254.571 149.786 254.57C149.779 254.57 149.773 254.569 149.771 254.569H149.781V254.568C149.77 254.568 149.758 254.568 149.747 254.567V254.568C126.674 254.1 102.597 250.028 87.2393 237.024C71.7902 223.943 65 203.24 65 184.116C65 174.853 67.2017 165.931 71.1738 157.701C71.2489 157.546 71.3203 157.388 71.3926 157.231H71.4717Z" fill="white"/>
<path d="M71.4717 173.231C73.3846 173.231 75.125 174.313 76.042 175.992C79.5418 182.4 88.6333 197.295 94.6289 191.3C97.659 188.27 103.2 188.482 105.394 192.163C111.677 202.71 122.943 217.596 134.69 213.552C138.697 212.173 142.578 208.654 145.442 205.503C147.839 202.866 152.358 202.866 154.755 205.503C157.62 208.654 161.501 212.173 165.507 213.552C177.254 217.596 188.52 202.71 194.804 192.163C196.997 188.482 202.538 188.27 205.568 191.3C211.564 197.295 220.655 182.4 224.155 175.992C225.072 174.313 226.813 173.231 228.726 173.231H233.643C234.314 176.791 234.665 180.426 234.665 184.116C234.665 203.24 227.875 223.943 212.426 237.024C197.068 250.028 172.991 254.1 149.918 254.568L149.917 254.567C149.905 254.568 149.894 254.568 149.882 254.568L149.883 254.569H149.896C149.894 254.569 149.887 254.57 149.88 254.57C149.872 254.571 149.861 254.57 149.848 254.57C149.842 254.57 149.837 254.569 149.832 254.569C149.827 254.569 149.822 254.57 149.816 254.57C149.804 254.57 149.793 254.571 149.786 254.57C149.779 254.57 149.773 254.569 149.771 254.569H149.781V254.568C149.77 254.568 149.758 254.568 149.747 254.567V254.568C126.674 254.1 102.597 250.028 87.2393 237.024C71.7902 223.943 65 203.24 65 184.116C65 180.426 65.351 176.791 66.0225 173.231H71.4717Z" fill="#D6E0FF"/>
<path d="M74.5986 157.231C74.5986 157.231 87.073 182.856 94.6292 175.3C97.6594 172.27 103.2 172.482 105.393 176.163C111.677 186.711 122.943 201.596 134.69 197.552C138.697 196.173 142.578 192.654 145.443 189.503C147.84 186.866 152.358 186.866 154.755 189.503C157.62 192.655 161.501 196.173 165.507 197.552C177.254 201.596 188.52 186.711 194.804 176.163C196.997 172.482 202.538 172.27 205.568 175.3C213.124 182.856 225.599 157.231 225.599 157.231" stroke="#131418" stroke-width="3" stroke-linejoin="round"/>
<path d="M141.545 59.1445L139.093 58.6562V58.6562L141.545 59.1445ZM152.826 47.1162L153.315 44.6644L153.315 44.6644L152.826 47.1162ZM153.618 65.4375L151.166 64.9503C150.965 65.9632 151.407 66.9955 152.279 67.5487C153.151 68.1018 154.274 68.0618 155.104 67.448L153.618 65.4375ZM172.601 64.3105L174.276 62.4548L174.276 62.4548L172.601 64.3105ZM159.701 77.0352L157.799 75.4125L157.799 75.4126L159.701 77.0352ZM159.513 77.251L157.619 75.6189C157.028 76.3049 156.854 77.2572 157.164 78.1081C157.475 78.9589 158.221 79.5753 159.115 79.7192L159.513 77.251ZM223.014 144.615H225.514V144.615L223.014 144.615ZM226.239 158.787L223.988 159.874L223.988 159.874L226.239 158.787ZM232.165 184.115H234.665V184.115L232.165 184.115ZM210.811 235.115L212.426 237.023L212.426 237.023L210.811 235.115ZM149.867 252.068L149.816 249.569C148.456 249.596 147.367 250.707 147.367 252.068H149.867ZM149.867 252.07L149.817 254.57C150.489 254.583 151.138 254.326 151.617 253.856C152.097 253.385 152.367 252.742 152.367 252.07H149.867ZM149.832 252.069L149.881 249.57C149.848 249.569 149.814 249.569 149.781 249.57L149.832 252.069ZM149.798 252.07H147.298C147.298 252.742 147.568 253.386 148.048 253.856C148.528 254.326 149.176 254.583 149.848 254.57L149.798 252.07ZM149.798 252.068H152.298C152.298 250.707 151.209 249.596 149.849 249.569L149.798 252.068ZM88.8545 235.115L87.239 237.023L87.239 237.023L88.8545 235.115ZM67.5 184.115L65 184.115V184.115H67.5ZM73.4248 158.787L71.1734 157.7L71.1734 157.7L73.4248 158.787ZM76.6523 144.615L74.1523 144.615V144.615H76.6523ZM143.087 76.8281L143.401 79.3083C144.207 79.2062 144.913 78.7193 145.294 78.0025C145.675 77.2856 145.685 76.4282 145.319 75.7031L143.087 76.8281ZM141.545 59.1445L143.997 59.6329C145.813 50.5136 150.384 49.1788 152.338 49.5681L152.826 47.1162L153.315 44.6644C147.402 43.4868 141.16 48.2762 139.093 58.6562L141.545 59.1445ZM152.826 47.1162L152.338 49.568C152.376 49.5756 152.386 49.5824 152.381 49.5797C152.375 49.5768 152.372 49.5733 152.374 49.5753C152.378 49.5795 152.456 49.6521 152.554 49.8925C152.772 50.426 152.932 51.3855 152.908 52.9057C152.862 55.9161 152.134 60.0795 151.166 64.9503L153.618 65.4375L156.07 65.9247C157.023 61.1295 157.853 56.5217 157.908 52.9827C157.935 51.2282 157.781 49.4685 157.184 48.004C156.535 46.4141 155.295 45.059 153.315 44.6644L152.826 47.1162ZM153.618 65.4375L155.104 67.448C157.871 65.403 161.376 64.6084 164.58 64.6367C166.168 64.6507 167.615 64.8677 168.771 65.1928C169.982 65.5335 170.668 65.934 170.925 66.1663L172.601 64.3105L174.276 62.4548C173.206 61.4889 171.684 60.8183 170.124 60.3796C168.509 59.9253 166.62 59.6545 164.624 59.6369C160.658 59.6019 155.999 60.5689 152.132 63.427L153.618 65.4375ZM172.601 64.3105L170.925 66.1663C170.995 66.2291 170.697 65.9827 170.673 65.4369C170.652 64.9466 170.88 64.7211 170.775 64.8556C170.498 65.2131 169.765 65.7916 168.271 66.8082C165.568 68.6471 161.266 71.3497 157.799 75.4125L159.701 77.0352L161.603 78.6578C164.538 75.2176 168.187 72.9126 171.083 70.9424C172.388 70.0544 173.868 69.028 174.728 67.9179C175.192 67.3186 175.72 66.3937 175.668 65.2181C175.614 63.987 174.957 63.0694 174.276 62.4548L172.601 64.3105ZM159.701 77.0352L157.799 75.4126C157.69 75.5408 157.787 75.4239 157.619 75.6189L159.513 77.251L161.406 78.8831C161.426 78.8603 161.447 78.8368 161.482 78.7966C161.514 78.7608 161.557 78.7112 161.603 78.6577L159.701 77.0352ZM159.513 77.251L159.115 79.7192C194.3 85.3824 220.514 112.066 220.514 144.615L223.014 144.615L225.514 144.615C225.513 109.12 196.999 80.7524 159.91 74.7827L159.513 77.251ZM223.014 144.615H220.514C220.514 149.885 221.692 155.118 223.988 159.874L226.239 158.787L228.491 157.7C226.527 153.632 225.514 149.143 225.514 144.615H223.014ZM226.239 158.787L223.988 159.874C227.657 167.475 229.665 175.658 229.665 184.115L232.165 184.115L234.665 184.115C234.665 174.852 232.463 165.93 228.491 157.7L226.239 158.787ZM232.165 184.115H229.665C229.665 202.224 223.216 221.336 209.195 233.207L210.811 235.115L212.426 237.023C227.875 223.942 234.665 203.239 234.665 184.115H232.165ZM210.811 235.115L209.195 233.207C195.239 245.024 172.702 249.105 149.816 249.569L149.867 252.068L149.918 254.568C172.991 254.1 197.068 250.027 212.426 237.023L210.811 235.115ZM149.867 252.068H147.367V252.07H149.867H152.367V252.068H149.867ZM149.867 252.07L149.917 249.571C149.924 249.571 149.929 249.571 149.931 249.571C149.932 249.571 149.933 249.571 149.929 249.571C149.927 249.571 149.92 249.571 149.912 249.571C149.905 249.57 149.894 249.57 149.881 249.57L149.832 252.069L149.783 254.569C149.776 254.569 149.771 254.569 149.769 254.569C149.768 254.568 149.767 254.568 149.77 254.569C149.772 254.569 149.779 254.569 149.786 254.569C149.794 254.569 149.805 254.57 149.817 254.57L149.867 252.07ZM149.832 252.069L149.781 249.57C149.768 249.57 149.757 249.57 149.749 249.571C149.742 249.571 149.735 249.571 149.733 249.571C149.73 249.571 149.731 249.571 149.733 249.571C149.735 249.571 149.74 249.571 149.748 249.571L149.798 252.07L149.848 254.57C149.861 254.57 149.872 254.569 149.88 254.569C149.888 254.569 149.894 254.569 149.897 254.568C149.9 254.568 149.899 254.568 149.898 254.568C149.896 254.569 149.89 254.569 149.883 254.569L149.832 252.069ZM149.798 252.07H152.298V252.068H149.798H147.298V252.07H149.798ZM149.798 252.068L149.849 249.569C126.964 249.105 104.426 245.024 90.47 233.207L88.8545 235.115L87.239 237.023C102.597 250.027 126.674 254.1 149.747 254.568L149.798 252.068ZM88.8545 235.115L90.47 233.207C76.4494 221.336 70 202.224 70 184.115H67.5H65C65 203.239 71.79 223.942 87.239 237.023L88.8545 235.115ZM67.5 184.115L70 184.115C70.0001 175.658 72.0076 167.475 75.6763 159.874L73.4248 158.787L71.1734 157.7C67.2012 165.93 65.0001 174.853 65 184.115L67.5 184.115ZM73.4248 158.787L75.6763 159.874C77.9714 155.119 79.1523 149.886 79.1523 144.615H76.6523H74.1523C74.1523 149.143 73.1372 153.632 71.1734 157.7L73.4248 158.787ZM76.6523 144.615L79.1523 144.615C79.1525 111.195 106.798 83.947 143.401 79.3083L143.087 76.8281L142.773 74.348C104.217 79.2341 74.1525 108.162 74.1523 144.615L76.6523 144.615ZM143.087 76.8281L145.319 75.7031C143.641 72.373 142.736 65.9619 143.997 59.6329L141.545 59.1445L139.093 58.6562C137.667 65.8144 138.565 73.4093 140.854 77.9531L143.087 76.8281Z" fill="#131418"/>
<path d="M153.658 144.258L153.913 144.278C159.786 144.77 164.703 149.249 165.871 155.064C166.781 159.593 163.216 163.855 158.361 164.165C156.182 164.304 154.008 164.348 152.202 164.205C150.396 164.062 148.257 163.675 146.128 163.194C141.382 162.121 138.534 157.35 140.148 153.021C142.219 147.464 147.781 143.817 153.658 144.258Z" fill="#6B8FFF" stroke="#3164FF" stroke-width="3"/>
<path d="M188.289 132.963C194.29 133.44 198.851 138.911 198.344 145.298C197.837 151.685 192.469 156.368 186.468 155.891C180.467 155.415 175.906 149.944 176.413 143.556C176.92 137.169 182.287 132.487 188.289 132.963Z" fill="#6B8FFF" stroke="#3164FF" stroke-width="3"/>
<circle cx="194.412" cy="137.964" r="5" transform="rotate(4.5404 194.412 137.964)" fill="#EBEDF1"/>
<path d="M121.499 127.66C127.5 128.136 132.061 133.607 131.554 139.994C131.047 146.381 125.679 151.064 119.678 150.587C113.677 150.111 109.116 144.64 109.623 138.253C110.13 131.866 115.497 127.183 121.499 127.66Z" fill="#6B8FFF" stroke="#3164FF" stroke-width="3"/>
<circle cx="127.622" cy="132.66" r="5" transform="rotate(4.5404 127.622 132.66)" fill="#EBEDF1"/>
<path d="M92.2102 217.277C102.926 232.264 122.909 233.099 131.638 226.857C140.368 220.616 136.923 211.194 126.208 196.207C115.492 181.219 101.797 163.478 93.0679 169.719C84.3385 175.961 81.4947 202.29 92.2102 217.277Z" fill="#25272F" stroke="#131418" stroke-width="5"/>
<path d="M204.497 222.425C192.306 236.091 172.398 234.719 164.39 227.575C156.382 220.432 160.78 211.478 172.971 197.811C185.162 184.145 200.595 168.078 208.603 175.222C216.611 182.365 216.687 208.759 204.497 222.425Z" fill="#25272F" stroke="#131418" stroke-width="5"/>
<path d="M181.091 259.969C177.589 259.231 175.22 257.53 173.636 252.987C171.77 247.636 172.701 237.873 174.331 230.136C177.347 215.829 182.685 204.841 190.311 206.448C197.937 208.056 204.961 221.649 201.946 235.956C198.931 250.263 188.717 261.576 181.091 259.969Z" fill="#131418" stroke="#131418" stroke-width="3"/>
<path d="M123.913 259.969C127.415 259.231 129.784 257.53 131.369 252.987C133.235 247.636 132.304 237.873 130.673 230.136C127.658 215.829 122.319 204.841 114.693 206.448C107.068 208.056 100.043 221.649 103.058 235.956C106.074 250.263 116.288 261.576 123.913 259.969Z" fill="#131418" stroke="#131418" stroke-width="3"/>
<path d="M213.873 70.8764C214.549 68.5783 215.29 66.7809 216.096 65.4842C216.92 64.1927 217.829 63.2269 218.824 62.5868C219.824 61.9281 221.086 61.3943 222.609 60.9853C224.166 60.5259 225.445 59.8966 226.446 59.0974C227.447 58.2982 228.127 57.2671 228.488 56.004C228.779 54.9823 228.805 54.0253 228.565 53.1331C228.329 52.2222 227.849 51.4422 227.123 50.793C226.421 50.1305 225.575 49.6581 224.586 49.3758C223.633 49.104 222.687 49.0547 221.746 49.2281C220.81 49.3829 219.958 49.8025 219.188 50.4868C217.797 51.7233 216.033 52.8708 214.244 52.36L214.139 52.3301C212.187 51.7731 211.021 49.6596 212.126 47.9568C212.695 47.078 213.359 46.3139 214.117 45.6644C215.722 44.2744 217.571 43.4161 219.665 43.0897C221.764 42.7447 223.959 42.899 226.248 43.5525C228.739 44.2635 230.801 45.3341 232.433 46.7642C234.088 48.1809 235.205 49.8556 235.782 51.7882C236.365 53.7023 236.344 55.7553 235.718 57.9471C235.098 60.1204 234.061 61.8435 232.608 63.1163C231.179 64.3757 229.363 65.3239 227.161 65.9609C225.877 66.2973 224.813 66.727 223.971 67.2499C223.128 67.7728 222.407 68.4608 221.807 69.314C221.206 70.1673 220.696 71.2971 220.275 72.7036C220.275 72.7036 220.199 73.0318 220.123 73.233C219.206 75.6656 213.217 73.956 213.722 71.4058C213.764 71.1949 213.873 70.8764 213.873 70.8764ZM213.594 84.6579C212.825 84.4384 212.166 84.0394 211.618 83.4611C211.075 82.8643 210.704 82.1859 210.505 81.4259C210.33 80.6527 210.353 79.876 210.576 79.0958C210.794 78.3342 211.178 77.6806 211.73 77.1351C212.306 76.5761 212.976 76.205 213.741 76.0217C214.512 75.8199 215.282 75.8287 216.051 76.0483C216.784 76.2574 217.424 76.6511 217.972 77.2294C218.526 77.7891 218.899 78.4582 219.093 79.2367C219.292 79.9967 219.283 80.7574 219.066 81.519C218.843 82.2992 218.444 82.9687 217.868 83.5276C217.298 84.068 216.625 84.4484 215.849 84.6688C215.078 84.8707 214.327 84.8671 213.594 84.6579Z" fill="#3164FF"/>
</g>
</svg>
