<svg width="16" height="16" viewBox="0 0 16 16" fill="none" xmlns="http://www.w3.org/2000/svg">
<path d="M1.33331 7.99967C1.33331 4.31778 4.31808 1.33301 7.99998 1.33301C11.6819 1.33301 14.6666 4.31778 14.6666 7.99967C14.6666 11.6816 11.6819 14.6663 7.99998 14.6663C4.31808 14.6663 1.33331 11.6816 1.33331 7.99967Z" fill="#EBF0FF"/>
<path d="M10.5282 5.52804C10.7885 5.26799 11.2113 5.26801 11.4716 5.52804C11.7318 5.78832 11.7317 6.21103 11.4716 6.4714L7.47157 10.4714C7.34654 10.5964 7.1767 10.6667 6.99989 10.6667C6.82309 10.6667 6.65323 10.5964 6.52821 10.4714L4.52821 8.4714C4.2681 8.21103 4.26794 7.78831 4.52821 7.52804C4.78849 7.26799 5.21127 7.26801 5.47157 7.52804L6.99989 9.05636L10.5282 5.52804Z" fill="#3164FF"/>
</svg>
