<svg width="20" height="20" viewBox="0 0 20 20" fill="none" xmlns="http://www.w3.org/2000/svg">
<path d="M0 10C0 4.47715 4.47715 0 10 0C15.5228 0 20 4.47715 20 10C20 15.5228 15.5228 20 10 20C4.47715 20 0 15.5228 0 10Z" fill="#0B1C66"/>
<path fill-rule="evenodd" clip-rule="evenodd" d="M13.7929 6.29289C14.1834 5.90237 14.8164 5.90237 15.207 6.29289C15.5974 6.68342 15.5975 7.31646 15.207 7.70696L9.20696 13.707C9.01944 13.8945 8.76511 13.9999 8.49992 13.9999C8.23474 13.9999 7.98042 13.8944 7.79289 13.707L4.79289 10.707C4.40237 10.3164 4.40237 9.68342 4.79289 9.29289C5.18342 8.90237 5.81643 8.90237 6.20696 9.29289L8.49992 11.5859L13.7929 6.29289Z" fill="white"/>
</svg>
