<svg width="24" height="24" viewBox="0 0 24 24" fill="none" xmlns="http://www.w3.org/2000/svg">
<path d="M2 12C2 6.47715 6.47715 2 12 2C17.5228 2 22 6.47715 22 12C22 17.5228 17.5228 22 12 22C6.47715 22 2 17.5228 2 12Z" fill="#EBF0FF"/>
<path d="M15.7931 8.29297C16.1836 7.90251 16.8166 7.90246 17.2072 8.29297C17.5976 8.68348 17.5976 9.31652 17.2072 9.70703L11.2072 15.707C11.0196 15.8945 10.7653 16 10.5001 16C10.2349 16 9.98062 15.8945 9.79309 15.707L6.79309 12.707C6.40257 12.3165 6.40257 11.6835 6.79309 11.293C7.18362 10.9025 7.81665 10.9025 8.20715 11.293L10.5001 13.5859L15.7931 8.29297Z" fill="#3164FF"/>
</svg>
