<svg width="24" height="24" viewBox="0 0 24 24" fill="none" xmlns="http://www.w3.org/2000/svg">
<path d="M15 3C15.5523 3 16 3.44772 16 4V4.5H17C18.6569 4.5 20 5.84315 20 7.5V17.5C20 19.1569 18.6569 20.5 17 20.5H7C5.34315 20.5 4 19.1569 4 17.5V7.5C4 5.84315 5.34315 4.5 7 4.5H8V4C8 3.44772 8.44772 3 9 3C9.55228 3 10 3.44772 10 4V4.5H14V4C14 3.44772 14.4477 3 15 3ZM6 17.5C6 18.0523 6.44772 18.5 7 18.5H17C17.5523 18.5 18 18.0523 18 17.5V11H6V17.5ZM7 6.5C6.44772 6.5 6 6.94772 6 7.5V9H18V7.5C18 6.94772 17.5523 6.5 17 6.5H16V7C16 7.55228 15.5523 8 15 8C14.4477 8 14 7.55228 14 7V6.5H10V7C10 7.55228 9.55228 8 9 8C8.44772 8 8 7.55228 8 7V6.5H7Z" fill="#131418"/>
</svg>
