<svg width="24" height="24" viewBox="0 0 24 24" fill="none" xmlns="http://www.w3.org/2000/svg">
<path d="M12 5C12.5523 5 13 5.44772 13 6C13 6.55228 12.5523 7 12 7H7C6.44772 7 6 7.44772 6 8V18C6 18.5523 6.44772 19 7 19H17C17.5523 19 18 18.5523 18 18V13C18 12.4477 18.4477 12 19 12C19.5523 12 20 12.4477 20 13V18C20 19.6569 18.6569 21 17 21H7C5.34315 21 4 19.6569 4 18V8C4 6.34315 5.34315 5 7 5H12ZM18.498 4C19.1616 4.00007 19.7984 4.26323 20.2676 4.73242C20.7368 5.20162 20.9999 5.83842 21 6.50195C21 7.16546 20.7367 7.80225 20.2676 8.27148L13.54 14.999C13.4119 15.1272 13.251 15.2177 13.0752 15.2617L10.2422 15.9697C9.90148 16.0548 9.54129 15.9554 9.29297 15.707C9.04464 15.4587 8.94518 15.0985 9.03027 14.7578L9.73828 11.9248C9.78225 11.749 9.87285 11.5881 10.001 11.46L16.7285 4.73242C17.1977 4.26333 17.8345 4 18.498 4ZM18.498 6C18.3649 6 18.2368 6.05328 18.1426 6.14746L11.6113 12.6768L11.374 13.625L12.3223 13.3877L18.8525 6.85742C18.9467 6.76324 19 6.63515 19 6.50195C18.9999 6.36885 18.9467 6.24158 18.8525 6.14746C18.7584 6.05334 18.6311 6.00007 18.498 6Z" fill="currentColor"/>
</svg>
