<svg width="24" height="24" viewBox="0 0 24 24" fill="none" xmlns="http://www.w3.org/2000/svg">
<rect x="3" y="3" width="18" height="18" rx="2" stroke="currentColor" stroke-width="2"/>
<path d="M11.5 12C12.3284 12 13 12.6716 13 13.5C13 14.3284 12.3284 15 11.5 15L6 15L6 12L11.5 12Z" stroke="currentColor" stroke-width="2" stroke-linejoin="round"/>
<path d="M16.5 6C17.3284 6 18 6.67157 18 7.5C18 8.32843 17.3284 9 16.5 9L6 9L6 6L16.5 6Z" stroke="currentColor" stroke-width="2" stroke-linejoin="round"/>
<path d="M16.1538 16.1786L16.5 15L16.8462 16.1786L18 16.5L16.8462 16.8214L16.5 18L16.1538 16.8214L15 16.5L16.1538 16.1786Z" fill="currentColor" stroke="currentColor" stroke-linejoin="round"/>
</svg>
