<svg width="200" height="200" viewBox="0 0 200 200" fill="none" xmlns="http://www.w3.org/2000/svg">
<g clip-path="url(#clip0_1473_7292)">
<rect width="200" height="200" rx="2" fill="#EBF0FF"/>
<path d="M206.176 195.05C206.176 218.135 188.829 233.55 177.025 233.55C165.221 233.55 162.275 221.435 162.275 198.35C162.275 175.264 163.179 147.2 174.983 147.2C186.787 147.2 206.176 171.964 206.176 195.05Z" fill="#25272F" stroke="#131418" stroke-width="5.5"/>
<path d="M-6.67501 195.05C-6.67501 218.135 10.6724 233.55 22.4765 233.55C34.2805 233.55 37.2266 221.435 37.2266 198.35C37.2266 175.264 36.3224 147.2 24.5183 147.2C12.7142 147.2 -6.67501 171.964 -6.67501 195.05Z" fill="#25272F" stroke="#131418" stroke-width="5.5"/>
<path d="M98.0793 35C102.463 35.0003 102.865 43.7548 102.87 54.5959C108.974 47.8804 119.729 47.2852 123.108 49.3C126.927 51.5782 117.219 56.3302 111.925 65.8C111.661 66.2717 111.4 66.7184 111.147 67.1438C150.244 73.9922 179.681 104.013 179.681 141.023C179.681 146.412 180.887 151.759 183.229 156.612C187.432 165.319 189.748 174.727 189.748 184.473C189.748 204.951 182.466 226.849 166.258 240.573C150.135 254.224 124.497 258.709 99.2201 259.222V259.224C99.2073 259.224 99.1943 259.223 99.1814 259.223C99.169 259.223 99.1563 259.224 99.1439 259.224V259.222C73.8669 258.709 48.2285 254.224 32.1062 240.573C15.8976 226.849 8.61621 204.951 8.61621 184.473C8.61621 174.727 10.931 165.319 15.1335 156.612C17.476 151.759 18.6838 146.412 18.6838 141.023C18.6838 102.452 50.6559 71.4714 92.2141 66.4016C90.0661 62.3202 88.494 56.4244 88.494 50.4C88.494 39.4648 93.6678 35 98.0793 35Z" fill="#25272F" stroke="#131418" stroke-width="5.5" stroke-linejoin="round"/>
<path d="M99.8848 138.95H100.165C106.648 138.978 112.43 143.462 114.217 149.736C115.609 154.623 112.072 159.608 106.774 160.37C104.398 160.712 102.017 160.95 100.024 160.95C98.0316 160.95 95.6516 160.712 93.2754 160.37C87.9781 159.608 84.4403 154.623 85.832 149.736C87.6193 143.462 93.4018 138.978 99.8848 138.95Z" fill="#6B8FFF" stroke="#3164FF" stroke-width="3.3"/>
<circle cx="136.875" cy="135.65" r="12.1" fill="#6B8FFF" stroke="#3164FF" stroke-width="3.3"/>
<circle cx="144.025" cy="128.5" r="5.5" fill="#EBEDF1"/>
<circle cx="63.1748" cy="135.65" r="12.1" fill="#6B8FFF" stroke="#3164FF" stroke-width="3.3"/>
<circle cx="70.3247" cy="128.5" r="5.5" fill="#EBEDF1"/>
<path d="M12.9854 154.9C15.0896 154.9 17.0041 156.09 18.0127 157.937C21.8626 164.986 31.8638 181.37 38.459 174.775C41.7922 171.442 47.8862 171.676 50.2988 175.725C57.2111 187.327 69.6044 203.701 82.5264 199.252C86.933 197.735 91.2023 193.865 94.3535 190.399C96.9902 187.498 101.96 187.498 104.597 190.399C107.748 193.865 112.017 197.735 116.424 199.252C129.346 203.701 141.738 187.327 148.65 175.725C151.063 171.676 157.158 171.442 160.491 174.775C167.086 181.37 177.088 164.986 180.938 157.937C181.868 156.234 183.568 155.091 185.478 154.923C185.554 155.089 185.629 155.254 185.708 155.418C190.077 164.47 192.498 174.284 192.498 184.472C192.498 205.508 185.029 228.281 168.035 242.67C151.142 256.974 124.657 261.454 99.2773 261.969L99.2764 261.967C99.2634 261.968 99.2503 261.968 99.2373 261.968L99.2383 261.97H99.2412C99.2383 261.97 99.2326 261.971 99.2266 261.971C99.2199 261.971 99.2106 261.971 99.2002 261.971C99.1948 261.971 99.189 261.97 99.1836 261.97C99.1781 261.97 99.1724 261.971 99.167 261.971C99.1572 261.971 99.148 261.971 99.1416 261.971C99.1356 261.971 99.1299 261.97 99.127 261.97V261.968C99.1143 261.968 99.1015 261.968 99.0889 261.967V261.969C73.7088 261.454 47.2243 256.974 30.3311 242.67C13.3373 228.281 5.86816 205.508 5.86816 184.472C5.86834 174.284 8.28958 164.47 12.6582 155.418C12.7411 155.247 12.8196 155.073 12.8994 154.9H12.9854Z" fill="white"/>
<path d="M12.9854 172.5C15.0896 172.5 17.0041 173.69 18.0127 175.537C21.8626 182.586 31.8638 198.97 38.459 192.375C41.7922 189.042 47.8862 189.276 50.2988 193.325C57.2111 204.927 69.6044 221.301 82.5264 216.853C86.933 215.335 91.2023 211.466 94.3535 207.999C96.9902 205.099 101.96 205.099 104.597 207.999C107.748 211.466 112.017 215.336 116.424 216.853C129.346 221.301 141.738 204.927 148.65 193.325C151.063 189.276 157.158 189.042 160.491 192.375C167.086 198.97 177.088 182.586 180.938 175.537C181.946 173.69 183.861 172.5 185.965 172.5H191.374C192.113 176.415 192.498 180.414 192.498 184.473C192.498 205.509 185.029 228.282 168.035 242.671C151.142 256.974 124.657 261.455 99.2773 261.97L99.2764 261.968C99.2634 261.968 99.2503 261.969 99.2373 261.969L99.2383 261.971H99.2412C99.2383 261.971 99.2325 261.972 99.2266 261.972C99.2199 261.972 99.2105 261.971 99.2002 261.972C99.1948 261.972 99.189 261.971 99.1836 261.971C99.1781 261.971 99.1724 261.972 99.167 261.972C99.1572 261.971 99.148 261.972 99.1416 261.972C99.1356 261.972 99.1299 261.971 99.127 261.971V261.969C99.1143 261.969 99.1015 261.968 99.0889 261.968V261.97C73.7088 261.455 47.2244 256.974 30.3311 242.671C13.3371 228.282 5.86817 205.509 5.86816 184.473C5.86821 180.414 6.25367 176.415 6.99219 172.5H12.9854Z" fill="#D6E0FF"/>
<path d="M98.0791 35V32.25H98.079L98.0791 35ZM102.871 54.5957L100.121 54.5969C100.122 55.7329 100.821 56.7516 101.88 57.161C102.94 57.5703 104.142 57.286 104.906 56.4453L102.871 54.5957ZM123.107 49.2998L124.516 46.9379L124.516 46.9378L123.107 49.2998ZM111.925 65.7998L109.524 64.458L109.524 64.458L111.925 65.7998ZM111.146 67.1445L108.784 65.7375C108.321 66.5145 108.27 67.4694 108.647 68.2913C109.024 69.1133 109.781 69.6973 110.672 69.8533L111.146 67.1445ZM179.681 141.022H182.431V141.022L179.681 141.022ZM183.231 156.614L180.755 157.81V157.81L183.231 156.614ZM189.748 184.473H192.498V184.473L189.748 184.473ZM166.258 240.572L168.035 242.671L168.035 242.671L166.258 240.572ZM99.2217 259.221L99.1659 256.471C97.6692 256.502 96.4717 257.724 96.4717 259.221H99.2217ZM99.2217 259.223L99.1668 261.972C99.9055 261.987 100.619 261.704 101.147 261.187C101.674 260.669 101.972 259.962 101.972 259.223H99.2217ZM99.1826 259.222L99.2384 256.472C99.2014 256.471 99.1643 256.471 99.1273 256.472L99.1826 259.222ZM99.1445 259.223H96.3945C96.3945 259.962 96.6919 260.669 97.2197 261.187C97.7474 261.704 98.4612 261.987 99.2 261.972L99.1445 259.223ZM99.1445 259.221H101.895C101.895 257.724 100.697 256.502 99.2003 256.471L99.1445 259.221ZM32.1084 240.572L30.3314 242.671L30.3314 242.671L32.1084 240.572ZM8.61816 184.473L5.86816 184.473V184.473H8.61816ZM15.1348 156.614L17.6114 157.81L17.6114 157.81L15.1348 156.614ZM18.6855 141.022L15.9355 141.022V141.022H18.6855ZM92.2148 66.4023L92.5479 69.1321C93.4453 69.0226 94.2315 68.4791 94.651 67.6782C95.0704 66.8773 95.0694 65.9215 94.6483 65.1215L92.2148 66.4023ZM88.4941 50.4004H85.7441V50.4004L88.4941 50.4004ZM98.0791 35V37.75C98.1218 37.75 98.1351 37.755 98.1289 37.7533C98.122 37.7514 98.1171 37.7485 98.1198 37.7501C98.1256 37.7537 98.225 37.8153 98.3824 38.0535C98.7318 38.5823 99.1108 39.583 99.4123 41.2281C100.009 44.4858 100.119 49.134 100.121 54.5969L102.871 54.5957L105.621 54.5945C105.619 49.2162 105.524 44.0666 104.822 40.2367C104.474 38.338 103.93 36.4726 102.971 35.0211C101.929 33.4451 100.3 32.25 98.0791 32.25V35ZM102.871 54.5957L104.906 56.4453C107.452 53.6445 111.063 52.0338 114.524 51.3757C116.241 51.0493 117.848 50.9725 119.165 51.0748C120.546 51.1819 121.372 51.4665 121.699 51.6618L123.107 49.2998L124.516 46.9378C123.154 46.1258 121.368 45.7293 119.591 45.5913C117.751 45.4484 115.654 45.5624 113.497 45.9725C109.211 46.7872 104.394 48.8317 100.836 52.7461L102.871 54.5957ZM123.107 49.2998L121.699 51.6617C121.787 51.7145 121.413 51.5127 121.27 50.929C121.141 50.4046 121.339 50.1125 121.255 50.28C121.033 50.7253 120.367 51.507 118.973 52.925C116.451 55.4899 112.391 59.33 109.524 64.458L111.925 65.7998L114.325 67.1416C116.752 62.7996 120.194 59.5287 122.895 56.7807C124.113 55.5422 125.488 54.1169 126.177 52.7346C126.549 51.9883 126.92 50.8772 126.612 49.6199C126.289 48.3033 125.382 47.4546 124.516 46.9379L123.107 49.2998ZM111.925 65.7998L109.524 64.458C109.276 64.9016 109.029 65.3259 108.784 65.7375L111.146 67.1445L113.509 68.5515C113.771 68.1119 114.046 67.642 114.325 67.1416L111.925 65.7998ZM111.146 67.1445L110.672 69.8533C148.733 76.5196 176.93 105.613 176.931 141.022L179.681 141.022L182.431 141.022C182.43 102.412 151.754 71.465 111.621 64.4358L111.146 67.1445ZM179.681 141.022H176.931C176.931 146.821 178.23 152.578 180.755 157.81L183.231 156.614L185.708 155.419C183.548 150.943 182.431 146.003 182.431 141.022H179.681ZM183.231 156.614L180.755 157.81C184.79 166.17 186.998 175.17 186.998 184.473L189.748 184.473L192.498 184.473C192.498 174.284 190.077 164.471 185.708 155.419L183.231 156.614ZM189.748 184.473H186.998C186.998 204.393 179.904 225.415 164.481 238.474L166.258 240.572L168.035 242.671C185.029 228.282 192.498 205.509 192.498 184.473H189.748ZM166.258 240.572L164.481 238.474C149.13 251.471 124.339 255.961 99.1659 256.471L99.2217 259.221L99.2775 261.97C124.658 261.455 151.142 256.975 168.035 242.671L166.258 240.572ZM99.2217 259.221H96.4717V259.223H99.2217H101.972V259.221H99.2217ZM99.2217 259.223L99.2766 256.473C99.2784 256.473 99.2798 256.473 99.2807 256.473C99.2816 256.473 99.2821 256.473 99.2821 256.473C99.2821 256.473 99.2818 256.473 99.281 256.473C99.2802 256.473 99.2791 256.473 99.2775 256.473C99.2747 256.473 99.269 256.473 99.2629 256.473C99.2566 256.473 99.2481 256.472 99.2384 256.472L99.1826 259.222L99.1268 261.971C99.1235 261.971 99.1215 261.971 99.1217 261.971C99.1222 261.971 99.1231 261.971 99.1269 261.971C99.1298 261.971 99.1356 261.971 99.1418 261.972C99.1483 261.972 99.1569 261.972 99.1668 261.972L99.2217 259.223ZM99.1826 259.222L99.1273 256.472C99.1167 256.472 99.1075 256.473 99.1008 256.473C99.0943 256.473 99.0883 256.473 99.0856 256.473C99.0819 256.473 99.0816 256.473 99.0816 256.473C99.082 256.473 99.0848 256.473 99.0891 256.473L99.1445 259.223L99.2 261.972C99.2105 261.972 99.2197 261.972 99.2264 261.971C99.2328 261.971 99.2388 261.971 99.2415 261.971C99.2452 261.971 99.2456 261.971 99.2455 261.971C99.2451 261.971 99.2422 261.971 99.2379 261.971L99.1826 259.222ZM99.1445 259.223H101.895V259.221H99.1445H96.3945V259.223H99.1445ZM99.1445 259.221L99.2003 256.471C74.027 255.961 49.2366 251.471 33.8854 238.474L32.1084 240.572L30.3314 242.671C47.2247 256.975 73.7086 261.455 99.0888 261.97L99.1445 259.221ZM32.1084 240.572L33.8854 238.474C18.4624 225.415 11.3682 204.393 11.3682 184.473H8.61816H5.86816C5.86816 205.509 13.3372 228.282 30.3314 242.671L32.1084 240.572ZM8.61816 184.473L11.3682 184.473C11.3683 175.17 13.5764 166.17 17.6114 157.81L15.1348 156.614L12.6581 155.419C8.28944 164.471 5.86827 174.284 5.86816 184.473L8.61816 184.473ZM15.1348 156.614L17.6114 157.81C20.1361 152.578 21.4355 146.821 21.4355 141.022H18.6855H15.9355C15.9355 146.003 14.8185 150.943 12.6581 155.419L15.1348 156.614ZM18.6855 141.022L21.4355 141.022C21.436 104.127 52.0672 74.0704 92.5479 69.1321L92.2148 66.4023L91.8818 63.6726C49.2467 68.8737 15.936 100.777 15.9355 141.022L18.6855 141.022ZM92.2148 66.4023L94.6483 65.1215C92.7169 61.452 91.2442 55.9982 91.2441 50.4004L88.4941 50.4004L85.7441 50.4004C85.7442 56.852 87.4164 63.1902 89.7814 67.6832L92.2148 66.4023ZM88.4941 50.4004H91.2441C91.2441 40.1722 95.8876 37.7501 98.0792 37.75L98.0791 35L98.079 32.25C91.4478 32.2503 85.7441 38.7587 85.7441 50.4004H88.4941Z" fill="#131418"/>
<path d="M16.4248 154.9C16.4248 154.9 30.1466 183.087 38.4585 174.775C41.7916 171.442 47.8863 171.675 50.299 175.725C57.2113 187.327 69.6038 203.701 82.5258 199.252C86.9326 197.735 91.2018 193.865 94.3531 190.399C96.9898 187.498 101.96 187.498 104.597 190.399C107.748 193.865 112.017 197.735 116.424 199.252C129.346 203.701 141.738 187.327 148.651 175.725C151.063 171.675 157.158 171.442 160.491 174.775C168.803 183.087 182.525 154.9 182.525 154.9" stroke="#131418" stroke-width="3.3" stroke-linejoin="round"/>
<path d="M61.5069 35.7719L114.427 67.6198C115.415 68.2144 116.597 68.3974 117.719 68.1292L174.831 54.4727C178.691 53.5498 179.452 48.3913 176.024 46.3923L130.217 19.6831C126.586 17.5662 122.318 16.8183 118.184 17.5746L62.9838 27.6738C58.9956 28.4034 58.033 33.6813 61.5069 35.7719Z" fill="#142D8C" stroke="#0B1C66" stroke-width="7.117" stroke-linejoin="round"/>
<path d="M119.177 42.4416C137.77 45.5159 152.519 49.9657 152.121 52.3805L147.205 82.1125L147.16 82.3141C145.996 86.4906 130.54 87.4429 112.236 84.4166C93.6427 81.3423 79.1522 75.3259 79.8709 70.9793L84.7868 41.2473C85.1867 38.8327 100.583 39.3673 119.177 42.4416Z" fill="#142D8C"/>
<path d="M119.177 42.4416L119.757 38.9308V38.9308L119.177 42.4416ZM152.121 52.3805L155.632 52.961L155.632 52.9601L152.121 52.3805ZM147.205 82.1125L150.681 82.875C150.694 82.8147 150.705 82.754 150.716 82.693L147.205 82.1125ZM147.16 82.3141L150.588 83.2694C150.606 83.2056 150.622 83.1413 150.636 83.0766L147.16 82.3141ZM112.236 84.4166L111.656 87.9274L111.656 87.9274L112.236 84.4166ZM84.7868 41.2473L81.2761 40.666L81.276 40.6668L84.7868 41.2473ZM119.177 42.4416L118.596 45.9524C127.791 47.4727 135.969 49.3232 141.743 51.0652C144.655 51.9436 146.819 52.7544 148.171 53.4269C148.498 53.5897 148.749 53.7304 148.933 53.8461C149.025 53.9032 149.093 53.9498 149.141 53.9852C149.19 54.021 149.211 54.0395 149.211 54.0395C149.21 54.039 149.202 54.0319 149.189 54.018C149.175 54.0041 149.154 53.9815 149.127 53.9499C149.076 53.8897 148.989 53.7772 148.898 53.6105C148.71 53.2672 148.474 52.6215 148.61 51.8008L152.121 52.3805L155.632 52.9601C156.001 50.7259 154.521 49.24 153.953 48.7329C153.203 48.0624 152.259 47.5118 151.341 47.0553C149.458 46.1182 146.848 45.1716 143.799 44.2515C137.649 42.3963 129.156 40.4848 119.757 38.9308L119.177 42.4416ZM152.121 52.3805L148.61 51.8L143.694 81.532L147.205 82.1125L150.716 82.693L155.632 52.961L152.121 52.3805ZM147.205 82.1125L143.729 81.35L143.685 81.5516L147.16 82.3141L150.636 83.0766L150.681 82.875L147.205 82.1125ZM147.16 82.3141L143.733 81.3587C143.866 80.8794 144.125 80.7453 143.966 80.8628C143.801 80.984 143.409 81.2064 142.667 81.4523C141.184 81.9437 138.916 82.3322 135.91 82.5144C129.947 82.876 121.783 82.3882 112.817 80.9058L112.236 84.4166L111.656 87.9274C120.993 89.4713 129.709 90.0205 136.341 89.6184C139.633 89.4188 142.591 88.9752 144.906 88.2079C146.063 87.8245 147.212 87.311 148.187 86.5925C149.167 85.8703 150.164 84.7929 150.588 83.2694L147.16 82.3141ZM112.236 84.4166L112.817 80.9058C103.707 79.3995 95.7144 77.188 90.176 74.8886C87.3798 73.7277 85.3953 72.62 84.2164 71.6884C83.6259 71.2217 83.3855 70.9139 83.3167 70.803C83.264 70.718 83.4713 71.0178 83.3817 71.5598L79.8709 70.9793L76.36 70.3989C76.0907 72.0275 76.5937 73.4662 77.2685 74.5542C77.9272 75.6163 78.8462 76.5156 79.8036 77.2722C81.7207 78.7872 84.3861 80.1908 87.447 81.4616C93.6226 84.0255 102.172 86.3594 111.656 87.9274L112.236 84.4166ZM79.8709 70.9793L83.3817 71.5598L88.2977 41.8278L84.7868 41.2473L81.276 40.6668L76.36 70.3989L79.8709 70.9793ZM84.7868 41.2473L88.2975 41.8286C88.1616 42.6493 87.7304 43.1846 87.4424 43.4493C87.3025 43.5778 87.1838 43.6562 87.1161 43.6968C87.0806 43.7182 87.053 43.7327 87.0356 43.7414C87.0181 43.7502 87.0084 43.7543 87.0077 43.7546C87.0077 43.7546 87.0334 43.7438 87.0913 43.7257C87.1485 43.7078 87.2279 43.6856 87.3326 43.6609C87.5449 43.6108 87.8277 43.5583 88.1898 43.5095C89.6856 43.3078 91.9962 43.2369 95.0357 43.3425C101.063 43.5518 109.402 44.4322 118.596 45.9524L119.177 42.4416L119.757 38.9308C110.358 37.3767 101.702 36.4527 95.2827 36.2297C92.0989 36.1192 89.3232 36.1752 87.2387 36.4563C86.2232 36.5933 85.1518 36.8106 84.2257 37.2039C83.5252 37.5014 81.6461 38.4319 81.2761 40.666L84.7868 41.2473Z" fill="#0B1C66"/>
<path d="M164.428 36.7378C166.117 36.7378 167.486 38.1066 167.486 39.795L167.486 90.7488C167.486 92.4373 166.117 93.806 164.428 93.806C162.74 93.806 161.371 92.4373 161.371 90.7488L161.371 39.795C161.371 38.1066 162.74 36.7378 164.428 36.7378Z" fill="#F29411" stroke="#C77502" stroke-width="3.3"/>
<path d="M156.455 113.169C152.289 108.847 160.065 101.285 163.295 98.4698C164.055 97.8067 165.159 97.8067 165.92 98.4698C169.149 101.285 176.925 108.847 172.76 113.169C171.671 114.299 169.748 115.157 168.349 115.672C167.37 116.033 166.311 115.556 165.844 114.623L164.607 112.15L163.371 114.623C162.904 115.556 161.845 116.033 160.865 115.672C159.466 115.157 157.544 114.299 156.455 113.169Z" fill="#F29411" stroke="#C77502" stroke-width="3.3" stroke-linejoin="round"/>
<path d="M171.561 94.9824C171.561 98.6192 167.331 97.8046 164.428 97.8046C161.525 97.8046 157.294 98.6192 157.294 94.9824C157.294 91.3455 161.525 90.749 164.428 90.749C167.331 90.749 171.561 91.3455 171.561 94.9824Z" fill="#F29411" stroke="#C77502" stroke-width="3.3"/>
</g>
<defs>
<clipPath id="clip0_1473_7292">
<rect width="200" height="200" rx="2" fill="white"/>
</clipPath>
</defs>
</svg>
