<svg width="24" height="24" viewBox="0 0 24 24" fill="none" xmlns="http://www.w3.org/2000/svg">
<path d="M6.37568 10.068C6.16293 10.6899 6.05479 11.3427 6.05568 12C6.05568 12.734 6.18768 13.437 6.43168 14.086C6.73579 14.8972 7.21347 15.6321 7.83131 16.2393C8.44915 16.8466 9.19222 17.3115 10.0085 17.6015C10.8248 17.8916 11.6947 17.9998 12.5571 17.9185C13.4196 17.8372 14.2539 17.5684 15.0017 17.131H15.0027C16.1807 16.4404 17.0859 15.3661 17.5667 14.088H12.2197V10.132H21.8247C22.0731 11.4405 22.0581 12.7854 21.7807 14.088C21.2999 16.3399 20.0565 18.3568 18.2607 19.798C16.4869 21.2264 14.2771 22.0035 11.9997 22C10.2826 22.001 8.5943 21.5597 7.09731 20.7187C5.60032 19.8778 4.34513 18.6655 3.45269 17.1986C2.56024 15.7317 2.06061 14.0597 2.00193 12.3437C1.94326 10.6276 2.32751 8.92542 3.11768 7.401C3.96065 5.77291 5.23506 4.40796 6.80155 3.4554C8.36805 2.50284 10.1663 1.99936 11.9997 2C14.4257 2 16.6507 2.864 18.3827 4.302L15.1427 6.954C14.3837 6.48164 13.528 6.18643 12.6392 6.09034C11.7504 5.99424 10.8514 6.09972 10.009 6.39894C9.16658 6.69816 8.40245 7.18342 7.77342 7.81864C7.14439 8.45386 6.66663 9.2227 6.37568 10.068Z" fill="#131418"/>
</svg>
