<svg width="121" height="48" viewBox="0 0 121 48" fill="none" xmlns="http://www.w3.org/2000/svg">
<path fill-rule="evenodd" clip-rule="evenodd" d="M34.9586 15.7577C36.4353 15.7577 37.729 16.0556 38.8349 16.6566C39.8144 17.1777 40.624 17.8189 41.2613 18.5812V16.0749H46.5242V35.8931H41.2613V33.3346C40.64 34.1137 39.8301 34.7725 38.8347 35.3116L38.8338 35.312C37.7051 35.9124 36.4002 36.2103 34.9235 36.2103C33.2522 36.2103 31.7215 35.7801 30.3349 34.9195L30.334 34.9189C28.971 34.0581 27.8848 32.8512 27.0751 31.3032L27.074 31.3009C26.287 29.727 25.8954 27.9299 25.8954 25.9136C25.8954 23.9204 26.2871 22.1467 27.0743 20.596L27.0751 20.5942C27.885 19.046 28.9716 17.8505 30.3355 17.013L30.3365 17.0124C31.7232 16.1756 33.2651 15.7577 34.9586 15.7577ZM36.2275 20.3864C35.3363 20.3864 34.5157 20.6031 33.7632 21.0363C33.0136 21.468 32.397 22.1052 31.9151 22.9539C31.4596 23.7737 31.2288 24.7585 31.2288 25.9136C31.2288 27.0673 31.4592 28.0762 31.9154 28.9441C32.3976 29.793 33.0146 30.4428 33.7657 30.8981C34.5425 31.3547 35.3624 31.5818 36.2275 31.5818C37.1187 31.5818 37.9516 31.3649 38.7284 30.9307C39.5023 30.4748 40.1177 29.8371 40.5749 29.0141C41.0304 28.1707 41.2613 27.1624 41.2613 25.9841C41.2613 24.805 41.0301 23.8087 40.5749 22.9893L40.5741 22.9877C40.1164 22.1409 39.501 21.5042 38.7284 21.0724L38.7258 21.0709C37.9492 20.6141 37.1173 20.3864 36.2275 20.3864Z" fill="#25272F"/>
<path fill-rule="evenodd" clip-rule="evenodd" d="M72.5637 15.7577C74.4412 15.7577 76.122 16.1619 77.6026 16.9736C79.1071 17.7856 80.267 18.9451 81.0794 20.4493L81.1567 20.5887C81.9415 22.0376 82.332 23.6964 82.332 25.5612C82.332 26.2722 82.2845 26.9149 82.189 27.4883L82.1685 27.6111H67.9324C68.0703 28.9149 68.5458 29.9297 69.3504 30.669C70.1904 31.4409 71.2231 31.8284 72.458 31.8285C73.353 31.8285 74.1099 31.6364 74.7347 31.2592C75.3591 30.8823 75.8611 30.3149 76.2383 29.5491L76.2787 29.4673H81.889L81.8324 29.6562C81.2594 31.5662 80.1601 33.1427 78.5385 34.3828L78.5375 34.3835C76.9104 35.6038 74.9161 36.2103 72.5637 36.2103C70.662 36.2103 68.9457 35.7941 67.4184 34.9589L67.416 34.9575C65.9119 34.098 64.7299 32.8917 63.8714 31.3416L63.8705 31.3401C63.035 29.7885 62.6194 28.0017 62.6194 25.9841C62.6194 23.9433 63.0349 22.1446 63.8705 20.5927C64.7057 19.0415 65.877 17.8461 67.3823 17.0097C68.8872 16.1737 70.6157 15.7577 72.5637 15.7577ZM72.4228 20.1044C71.2339 20.1044 70.2357 20.4691 69.419 21.195L69.4188 21.1952C68.6624 21.8652 68.1794 22.7975 67.9775 24.0046H76.9228C76.8681 22.8448 76.4281 21.9253 75.6058 21.2329L75.6041 21.2313C74.7405 20.4815 73.6832 20.1044 72.4228 20.1044Z" fill="#25272F"/>
<path fill-rule="evenodd" clip-rule="evenodd" d="M93.6104 15.7577C95.4878 15.7577 97.1686 16.1619 98.6492 16.9736C100.154 17.7856 101.314 18.9451 102.126 20.4493L102.203 20.5887C102.988 22.0376 103.378 23.6964 103.378 25.5612C103.378 26.2723 103.331 26.9149 103.235 27.4883L103.215 27.6111H88.979C89.1169 28.9149 89.5923 29.9297 90.3968 30.669C91.2369 31.4409 92.2697 31.8285 93.5046 31.8285C94.3996 31.8285 95.1563 31.6364 95.7811 31.2592C96.4055 30.8823 96.9076 30.3149 97.2847 29.5491L97.3253 29.4673H102.936L102.879 29.6562C102.306 31.5662 101.207 33.1427 99.5851 34.3828L99.584 34.3835C97.9569 35.6038 95.9627 36.2103 93.6104 36.2103C91.7086 36.2103 89.9922 35.7941 88.4649 34.9589L88.4626 34.9575C86.9585 34.098 85.7764 32.8917 84.9178 31.3416L84.9171 31.3401C84.0816 29.7885 83.666 28.0017 83.666 25.9841C83.666 23.9433 84.0815 22.1446 84.9171 20.5927C85.7523 19.0415 86.9234 17.846 88.4287 17.0097C89.9336 16.1737 91.6623 15.7577 93.6104 15.7577ZM93.4694 20.1044C92.2806 20.1044 91.2823 20.4691 90.4656 21.195L90.4654 21.1952C89.709 21.8652 89.226 22.7975 89.0241 24.0046H97.9694C97.9147 22.8449 97.4747 21.9253 96.6524 21.2329L96.6507 21.2313C95.7872 20.4814 94.7298 20.1044 93.4694 20.1044Z" fill="#25272F"/>
<path d="M9.72772 21.7635L18.4185 11.0543L18.4625 11H24.8019L14.53 23.3401L25.0858 35.8931H18.4629L18.4187 35.8392L9.72772 25.1977V35.8931H4.5V11H9.72772V21.7635Z" fill="#25272F"/>
<path d="M61.5634 21.2675H60.1127C58.5829 21.2675 57.4493 21.6268 56.6873 22.3216C55.9577 23.0083 55.5722 24.2252 55.5722 26.0193V35.8931H50.3445V16.0749H55.5722V18.7623C56.1766 17.9033 56.9255 17.2133 57.8185 16.6941L57.8198 16.6933L57.9194 16.6378C58.9531 16.0737 60.12 15.7931 61.4165 15.7931H61.5634V21.2675Z" fill="#25272F"/>
<path d="M117.2 21.2675H115.749C114.22 21.2675 113.086 21.6268 112.324 22.3216C111.594 23.0083 111.209 24.2251 111.209 26.0193V35.8931H105.981V16.0749H111.209V18.7623C111.813 17.9033 112.562 17.2133 113.455 16.6941L113.457 16.6933C114.515 16.0921 115.715 15.7931 117.053 15.7931H117.2V21.2675Z" fill="#25272F"/>
</svg>
