<svg width="24" height="24" viewBox="0 0 24 24" fill="none" xmlns="http://www.w3.org/2000/svg">
<path d="M12 4C12.5523 4 13 4.44772 13 5C13 5.55228 12.5523 6 12 6H7C6.44772 6 6 6.44772 6 7V17C6 17.5523 6.44772 18 7 18H12C12.5523 18 13 18.4477 13 19C13 19.5523 12.5523 20 12 20H7C5.34315 20 4 18.6569 4 17V7C4 5.34315 5.34315 4 7 4H12Z" fill="#8C8F9A"/>
<path fill-rule="evenodd" clip-rule="evenodd" d="M14.293 7.29289C14.6835 6.90237 15.3165 6.90237 15.707 7.29289L19.707 11.2929C19.7532 11.3391 19.7946 11.3898 19.8311 11.4443C19.8574 11.4836 19.8802 11.5245 19.9004 11.5663C19.9222 11.6115 19.9412 11.6583 19.9561 11.707C19.9622 11.7272 19.9668 11.7479 19.9717 11.7685C19.9893 11.8428 20 11.9202 20 11.9999C20 12.0829 19.9878 12.163 19.9688 12.2402C19.9646 12.2571 19.9611 12.2742 19.9561 12.2909C19.9412 12.3399 19.9223 12.387 19.9004 12.4325C19.8804 12.4742 19.8572 12.5145 19.8311 12.5536C19.8185 12.5725 19.8048 12.5904 19.791 12.6083C19.7649 12.6421 19.738 12.676 19.707 12.707L15.707 16.707C15.3165 17.0974 14.6835 17.0974 14.293 16.707C13.9025 16.3164 13.9025 15.6834 14.293 15.2929L16.5859 12.9999H10C9.44774 12.9999 9.00004 12.5522 9 11.9999C9 11.4476 9.44772 10.9999 10 10.9999H16.5859L14.293 8.70696C13.9025 8.31644 13.9025 7.68342 14.293 7.29289Z" fill="#8C8F9A"/>
</svg>
