<svg width="285" height="285" viewBox="0 0 285 285" fill="none" xmlns="http://www.w3.org/2000/svg">
<g clip-path="url(#clip0_3013_16732)">
<g clip-path="url(#clip1_3013_16732)">
<path d="M139.726 45C145.437 45.0004 145.961 56.4053 145.968 70.5284C153.919 61.7798 167.93 61.0044 172.331 63.6292C177.308 66.5971 164.66 72.7877 157.763 85.1245C157.42 85.739 157.08 86.321 156.75 86.8752C207.683 95.7968 246.032 134.907 246.032 183.121C246.032 190.141 247.603 197.107 250.655 203.43C256.13 214.772 259.146 227.028 259.146 239.725C259.146 266.403 249.661 294.93 228.545 312.809C207.542 330.593 174.142 336.435 141.212 337.103V337.106C141.196 337.106 141.179 337.105 141.162 337.105C141.146 337.105 141.129 337.106 141.113 337.106V337.103C108.184 336.435 74.7833 330.593 53.7801 312.809C32.6645 294.93 23.1787 266.403 23.1787 239.725C23.1787 227.028 26.1943 214.772 31.6691 203.43C34.7207 197.107 36.2942 190.141 36.2942 183.121C36.2942 132.873 77.9456 92.5128 132.085 85.9081C129.287 80.5912 127.239 72.9105 127.239 65.0622C127.239 50.8164 133.979 45 139.726 45Z" fill="#25272F"/>
<path d="M19.5957 239.726C19.5957 226.452 22.7502 213.665 28.4424 201.872C31.2567 196.042 32.7119 189.609 32.7119 183.121C32.7119 132.2 73.6475 91.5291 126.889 83.0234C124.923 77.788 123.656 71.4683 123.656 65.0625C123.656 49.8959 131.088 41.417 139.727 41.417L139.995 41.4219C142.751 41.5153 144.784 43.0394 146.099 45.0283C147.348 46.9192 148.057 49.349 148.51 51.8223C149.095 55.016 149.355 58.9147 149.468 63.1445C152.826 61.1569 156.445 59.9339 159.812 59.2939C162.622 58.7598 165.353 58.6117 167.751 58.7979C170.066 58.9777 172.392 59.494 174.166 60.5518L174.167 60.5527C175.296 61.2261 176.476 62.3319 176.896 64.0469C177.298 65.6844 176.815 67.1315 176.33 68.1035C175.432 69.9043 173.641 71.7616 172.055 73.375C169.08 76.4007 165.417 79.9128 162.445 84.3428C212.216 95.1472 249.615 134.462 249.615 183.121C249.615 189.61 251.067 196.042 253.881 201.872C259.573 213.665 262.729 226.451 262.729 239.726C262.729 267.13 252.999 296.798 230.86 315.543C208.879 334.154 174.433 339.999 141.406 340.682C141.338 340.685 141.269 340.687 141.2 340.687C141.196 340.687 141.191 340.687 141.186 340.688C141.178 340.688 141.17 340.686 141.162 340.687C141.155 340.686 141.148 340.688 141.141 340.688C141.136 340.687 141.131 340.687 141.126 340.687C141.056 340.687 140.987 340.685 140.918 340.682C107.891 339.999 73.4455 334.154 51.4648 315.543C29.3261 296.798 19.5958 267.13 19.5957 239.726ZM130.821 65.0625C130.821 72.3546 132.74 79.4589 135.256 84.2393C135.804 85.2815 135.805 86.527 135.259 87.5703C134.712 88.6136 133.688 89.3213 132.519 89.4639C79.7825 95.8975 39.877 135.055 39.877 183.121C39.8769 190.674 38.1845 198.173 34.8955 204.987C29.6383 215.879 26.7617 227.606 26.7617 239.726C26.7618 265.676 36.0028 293.063 56.0947 310.075C76.0887 327.004 108.376 332.853 141.162 333.521C173.949 332.853 206.236 327.004 226.23 310.075C246.322 293.063 255.563 265.676 255.563 239.726C255.563 227.606 252.686 215.88 247.429 204.987C244.139 198.172 242.45 190.673 242.45 183.121C242.45 136.992 205.715 99.0895 156.132 90.4043C154.971 90.201 153.985 89.4398 153.494 88.3691C153.003 87.2984 153.069 86.0542 153.672 85.042C153.991 84.5064 154.313 83.9536 154.636 83.376H154.637C158.371 76.6963 163.66 71.6939 166.944 68.3525C167.833 67.4488 168.494 66.7422 168.972 66.1895C168.486 66.0856 167.896 65.9958 167.196 65.9414C165.48 65.8082 163.386 65.9078 161.149 66.333C156.64 67.1903 151.935 69.2889 148.619 72.9375C147.624 74.0327 146.057 74.4033 144.677 73.8701C143.296 73.3369 142.386 72.0101 142.385 70.5303C142.382 63.4135 142.239 57.3574 141.462 53.1133C141.069 50.9704 140.576 49.6663 140.121 48.9775C139.932 48.6916 139.807 48.602 139.782 48.5859C139.772 48.5846 139.754 48.583 139.726 48.583C136.87 48.5834 130.821 51.7383 130.821 65.0625Z" fill="#6B8FFF"/>
<path d="M121.704 193.883C124.288 184.814 132.64 178.312 142.069 178.271C142.133 178.271 142.197 178.271 142.261 178.271C142.325 178.271 142.389 178.271 142.453 178.271C151.882 178.312 160.234 184.814 162.817 193.883C165.035 201.668 159.372 209.299 151.36 210.452C148.22 210.904 145.005 211.23 142.261 211.23C139.517 211.23 136.302 210.904 133.162 210.452C125.15 209.299 119.487 201.668 121.704 193.883Z" fill="#6B8FFF"/>
<path d="M142.453 178.271C151.882 178.312 160.234 184.815 162.817 193.883C165.035 201.668 159.372 209.299 151.36 210.452C148.22 210.904 145.005 211.229 142.261 211.229V206.931C144.71 206.931 147.696 206.636 150.748 206.197C156.538 205.364 160.092 200.008 158.682 195.061C156.609 187.781 149.896 182.603 142.434 182.57C142.376 182.57 142.319 182.569 142.261 182.569C142.204 182.569 142.145 182.57 142.088 182.57C134.625 182.603 127.913 187.781 125.84 195.061C124.43 200.008 127.984 205.364 133.774 206.197C136.826 206.636 139.812 206.931 142.261 206.931V211.229L141.211 211.215C139.071 211.156 136.704 210.928 134.341 210.615L133.162 210.452C125.275 209.317 119.665 201.905 121.606 194.248L121.705 193.883C124.248 184.956 132.38 178.516 141.628 178.277L142.069 178.271H142.453Z" fill="#3164FF"/>
<path d="M208.18 176.121C208.18 186.014 200.16 194.034 190.267 194.034C180.374 194.034 172.354 186.014 172.354 176.121C172.354 166.228 180.374 158.208 190.267 158.208C200.16 158.208 208.18 166.228 208.18 176.121Z" fill="#6B8FFF"/>
<path d="M203.881 176.122C203.881 168.603 197.786 162.508 190.268 162.507C182.749 162.507 176.653 168.603 176.653 176.122C176.654 183.64 182.749 189.735 190.268 189.735V194.034L189.805 194.028C180.279 193.787 172.602 186.109 172.36 176.584L172.354 176.122C172.354 166.229 180.375 158.208 190.268 158.208L190.73 158.214C200.409 158.46 208.18 166.383 208.18 176.122L208.174 176.584C207.929 186.263 200.006 194.034 190.268 194.034V189.735C197.786 189.735 203.881 183.64 203.881 176.122Z" fill="#3164FF"/>
<path d="M206.747 166.807C206.747 170.764 203.539 173.972 199.582 173.972C195.624 173.972 192.417 170.764 192.417 166.807C192.417 162.85 195.624 159.642 199.582 159.642C203.539 159.642 206.747 162.85 206.747 166.807Z" fill="#EBEDF1"/>
<path d="M112.167 176.121C112.167 186.014 104.147 194.034 94.2545 194.034C84.3616 194.034 76.3418 186.014 76.3418 176.121C76.3418 166.228 84.3616 158.208 94.2545 158.208C104.147 158.208 112.167 166.228 112.167 176.121Z" fill="#6B8FFF"/>
<path d="M107.868 176.122C107.868 168.603 101.773 162.508 94.255 162.507C86.7363 162.507 80.6407 168.603 80.6407 176.122C80.6409 183.64 86.7365 189.735 94.255 189.735V194.034L93.7921 194.028C84.2665 193.787 76.589 186.109 76.3477 176.584L76.3418 176.122C76.3418 166.229 84.362 158.208 94.255 158.208L94.7169 158.214C104.396 158.46 112.167 166.383 112.167 176.122L112.161 176.584C111.916 186.263 103.993 194.034 94.255 194.034V189.735C101.773 189.735 107.868 183.64 107.868 176.122Z" fill="#3164FF"/>
<path d="M110.734 166.807C110.734 170.764 107.527 173.972 103.569 173.972C99.6122 173.972 96.4043 170.764 96.4043 166.807C96.4043 162.85 99.6122 159.642 103.569 159.642C107.527 159.642 110.734 162.85 110.734 166.807Z" fill="#EBEDF1"/>
<path d="M28.8711 201.199C31.6122 201.199 34.106 202.75 35.4199 205.156C40.4354 214.339 53.4639 235.683 62.0557 227.091C66.3979 222.749 74.3373 223.053 77.4805 228.329C86.4854 243.443 102.63 264.774 119.464 258.979C125.205 257.003 130.767 251.961 134.872 247.445C138.307 243.666 144.782 243.666 148.217 247.445C152.322 251.961 157.884 257.003 163.625 258.979C180.459 264.773 196.603 243.443 205.607 228.329C208.75 223.053 216.691 222.749 221.033 227.091C229.625 235.682 242.654 214.339 247.669 205.156C248.88 202.938 251.094 201.447 253.58 201.227C253.68 201.443 253.781 201.658 253.885 201.873C259.576 213.665 262.73 226.452 262.73 239.725L262.723 241.011C262.423 268.054 252.655 297.091 230.862 315.543C208.882 334.154 174.435 340 141.408 340.682C141.337 340.686 141.265 340.687 141.193 340.687C141.191 340.687 141.188 340.688 141.186 340.688C141.178 340.688 141.171 340.687 141.164 340.687C141.157 340.687 141.15 340.688 141.143 340.688C141.14 340.688 141.137 340.687 141.134 340.687C141.062 340.687 140.99 340.686 140.919 340.682C107.892 340 73.4473 334.154 51.4668 315.543C29.6739 297.091 19.9065 268.054 19.6064 241.011L19.5986 239.725C19.5988 226.452 22.7529 213.665 28.4443 201.873C28.5523 201.649 28.6578 201.424 28.7617 201.199H28.8711Z" fill="white"/>
<path d="M19.5967 239.725C19.5968 226.451 22.7515 213.664 28.4434 201.871C31.1694 196.223 32.62 190.009 32.708 183.729L32.7119 183.12C32.7126 132.2 73.6478 91.5314 126.888 83.0254C125.003 78.0037 123.762 71.9846 123.663 65.8496L123.656 65.0625C123.656 49.8959 131.088 41.417 139.727 41.417C142.619 41.4171 144.743 42.9744 146.1 45.0273C147.349 46.9183 148.058 49.3488 148.511 51.8223C149.096 55.0161 149.356 58.9146 149.469 63.1445C152.827 61.1569 156.446 59.934 159.812 59.2939C162.622 58.7598 165.354 58.6117 167.751 58.7979C170.066 58.9776 172.393 59.4937 174.167 60.5518L174.379 60.6836C175.44 61.3661 176.503 62.438 176.897 64.0459C177.299 65.6836 176.816 67.1314 176.331 68.1035C175.433 69.9044 173.641 71.7615 172.055 73.375C169.08 76.4007 165.418 79.913 162.446 84.3428C212.217 95.1467 249.615 134.462 249.615 183.12L249.619 183.729C249.707 190.009 251.158 196.223 253.884 201.871L254.41 202.98C259.77 214.464 262.729 226.866 262.729 239.725C262.729 267.129 253 296.797 230.861 315.543C208.88 334.154 174.434 339.999 141.407 340.682C141.336 340.685 141.264 340.687 141.192 340.687C141.19 340.687 141.187 340.687 141.185 340.688C141.177 340.688 141.17 340.686 141.162 340.687C141.155 340.686 141.148 340.688 141.141 340.688C141.138 340.687 141.135 340.687 141.132 340.687C141.06 340.687 140.989 340.686 140.918 340.682C107.892 339.999 73.4462 334.154 51.4658 315.543C29.3271 296.797 19.5967 267.129 19.5967 239.725ZM141.346 333.525C141.351 333.526 141.357 333.526 141.358 333.526C141.356 333.526 141.352 333.526 141.347 333.525C141.345 333.525 141.343 333.525 141.341 333.524C141.343 333.525 141.344 333.525 141.346 333.525ZM130.822 65.0625C130.822 72.3556 132.738 79.4614 135.254 84.2412C135.802 85.2834 135.804 86.529 135.258 87.5723C134.711 88.6156 133.687 89.3242 132.518 89.4668C79.7828 95.9009 39.8786 135.055 39.8779 183.12C39.8779 190.673 38.1851 198.172 34.8965 204.986C29.6395 215.878 26.7628 227.605 26.7627 239.725L26.7686 240.942C27.0533 266.529 36.3187 293.328 56.0967 310.074C76.0906 327.003 108.377 332.852 141.163 333.52C173.95 332.852 206.236 327.003 226.23 310.074C246.008 293.328 255.273 266.529 255.558 240.942L255.563 239.725C255.563 227.605 252.687 215.878 247.431 204.986V204.985C244.142 198.172 242.449 190.673 242.449 183.12C242.449 136.991 205.715 99.0897 156.132 90.4053C154.971 90.202 153.985 89.4408 153.494 88.3701C153.003 87.2993 153.069 86.0552 153.672 85.043C153.991 84.5062 154.314 83.9541 154.637 83.377C158.371 76.6965 163.66 71.6932 166.945 68.3516C167.834 67.4479 168.495 66.7422 168.973 66.1895C168.487 66.0855 167.896 65.9958 167.196 65.9414C165.481 65.8082 163.387 65.9078 161.15 66.333C156.641 67.1904 151.936 69.2889 148.62 72.9375C147.625 74.0326 146.058 74.4034 144.678 73.8701C143.297 73.3369 142.387 72.01 142.386 70.5303C142.383 63.4135 142.24 57.3573 141.463 53.1133C141.07 50.9704 140.576 49.6663 140.121 48.9775C139.933 48.6927 139.808 48.6024 139.783 48.5859L139.727 48.583C136.871 48.583 130.822 51.7375 130.822 65.0625Z" fill="#131418"/>
<path d="M249.737 201.199C251.67 202.14 251.669 202.14 251.669 202.141L251.665 202.149C251.662 202.154 251.659 202.162 251.654 202.171C251.645 202.191 251.63 202.219 251.612 202.255C251.576 202.328 251.524 202.435 251.455 202.572C251.317 202.846 251.115 203.245 250.855 203.746C250.336 204.747 249.584 206.161 248.647 207.823C246.779 211.138 244.156 215.475 241.17 219.489C238.221 223.453 234.766 227.312 231.192 229.457C229.387 230.54 227.398 231.28 225.33 231.237C223.194 231.192 221.216 230.314 219.513 228.611C217.818 226.917 215.371 226.092 213.012 226.248C210.666 226.402 208.601 227.503 207.454 229.428C202.913 237.05 196.494 246.383 188.985 253.097C181.528 259.766 172.466 264.296 162.925 261.011C156.641 258.848 150.773 253.452 146.626 248.89C144.044 246.05 139.045 246.05 136.463 248.89C132.316 253.452 126.448 258.848 120.164 261.011C110.623 264.296 101.561 259.766 94.1035 253.097C86.595 246.383 80.175 237.05 75.6338 229.428C74.4865 227.503 72.4219 226.402 70.0762 226.248C67.7166 226.092 65.2703 226.917 63.5762 228.611C61.8726 230.314 59.8947 231.192 57.7588 231.237C55.691 231.28 53.7022 230.54 51.8965 229.457C48.3227 227.311 44.867 223.453 41.918 219.489C38.9321 215.475 36.3099 211.138 34.4414 207.823C33.5048 206.161 32.7519 204.747 32.2324 203.746C31.9726 203.245 31.7714 202.846 31.6338 202.572C31.565 202.435 31.5116 202.328 31.4756 202.255C31.4577 202.219 31.4441 202.191 31.4346 202.171C31.4299 202.162 31.4264 202.154 31.4238 202.149C31.4226 202.146 31.4207 202.145 31.4199 202.143L31.419 202.141C31.4187 202.14 31.4189 202.14 33.3516 201.199C35.2843 200.258 35.2842 200.257 35.2842 200.257V200.258C35.2845 200.259 35.2853 200.26 35.2861 200.262C35.2879 200.266 35.2912 200.271 35.2949 200.279C35.3027 200.295 35.3139 200.319 35.3301 200.352C35.3624 200.417 35.4118 200.516 35.4766 200.645C35.606 200.903 35.7989 201.283 36.0488 201.765C36.5493 202.73 37.2782 204.1 38.1865 205.711C40.0081 208.943 42.5316 213.109 45.3682 216.922C48.2415 220.785 51.2852 224.075 54.1084 225.77C55.5012 226.606 56.6857 226.959 57.668 226.938C58.5822 226.919 59.5327 226.574 60.5361 225.571C63.1841 222.923 66.8781 221.729 70.3594 221.958C73.8546 222.189 77.3313 223.878 79.3272 227.228C83.7909 234.72 89.9464 243.611 96.9697 249.892C104.044 256.218 111.471 259.457 118.765 256.946C123.963 255.156 129.218 250.469 133.281 245.999C137.569 241.282 145.52 241.282 149.808 245.999C153.871 250.469 159.126 255.156 164.324 256.946C171.617 259.457 179.045 256.218 186.119 249.892C193.142 243.611 199.297 234.72 203.761 227.228C205.757 223.878 209.234 222.189 212.729 221.958C216.211 221.729 219.905 222.923 222.553 225.571C223.556 226.574 224.507 226.919 225.421 226.938C226.403 226.959 227.587 226.606 228.979 225.77C231.803 224.075 234.847 220.785 237.721 216.922C240.557 213.109 243.081 208.943 244.902 205.711C245.811 204.1 246.54 202.73 247.04 201.765C247.29 201.283 247.483 200.903 247.612 200.645C247.677 200.516 247.726 200.417 247.758 200.352C247.774 200.319 247.786 200.295 247.794 200.279C247.798 200.271 247.801 200.266 247.803 200.262C247.804 200.26 247.804 200.259 247.805 200.258C247.811 200.261 247.917 200.313 249.737 201.199Z" fill="#6B8FFF"/>
</g>
<path d="M5.64346 219.398C5.64346 233.354 27.9436 242.673 43.1178 242.673C58.292 242.673 62.0791 235.349 62.0791 221.393C62.0791 207.437 60.9168 190.47 45.7426 190.47C30.5684 190.47 5.64346 205.442 5.64346 219.398Z" fill="#25272F"/>
<path d="M9.1709 219.398C9.17091 216.957 10.2747 214.144 12.5771 211.132C14.8602 208.147 18.1376 205.215 21.9766 202.624C29.7468 197.378 39.0886 193.998 45.7422 193.998C48.831 193.998 50.941 194.842 52.4824 196.085C54.0757 197.37 55.3369 199.306 56.2881 201.909C58.234 207.234 58.5518 214.373 58.5518 221.393C58.5518 228.246 57.5761 232.496 55.5283 235.071C53.6469 237.436 50.2105 239.146 43.1182 239.146C36.1369 239.146 27.3468 236.972 20.3789 233.172C13.2235 229.271 9.1709 224.365 9.1709 219.398ZM2.11621 219.398C2.11621 228.387 9.21381 235.119 17.002 239.366C24.9777 243.715 34.9253 246.201 43.1182 246.201C51.1996 246.201 57.2442 244.248 61.0498 239.462C64.6889 234.887 65.6064 228.496 65.6064 221.393C65.6064 214.457 65.3427 206.134 62.9141 199.488C61.6779 196.105 59.8034 192.926 56.9111 190.593C53.9669 188.219 50.2405 186.943 45.7422 186.943C37.2218 186.943 26.5147 191.048 18.0293 196.777C13.7403 199.672 9.83726 203.102 6.97266 206.848C4.12767 210.569 2.11622 214.861 2.11621 219.398Z" fill="#131418"/>
<path d="M164.475 148.84C179.032 134.282 202.635 134.282 217.192 148.84C231.75 163.398 231.75 187 217.192 201.558C202.635 216.115 179.032 216.115 164.475 201.558C149.917 187 149.917 163.398 164.475 148.84Z" fill="white" fill-opacity="0.1"/>
<path d="M217.377 219.797C212.326 214.746 212.326 206.558 217.377 201.507C222.427 196.456 230.616 196.456 235.667 201.507L273.322 239.162C278.373 244.213 278.373 252.402 273.322 257.452C268.271 262.503 260.083 262.503 255.032 257.452L217.377 219.797Z" fill="#B8BBC4"/>
<path d="M270.329 242.155L232.673 204.5C229.276 201.102 223.767 201.102 220.369 204.5C216.972 207.897 216.972 213.406 220.369 216.804L258.025 254.459C261.423 257.857 266.931 257.857 270.329 254.459L273.322 257.452C268.271 262.503 260.083 262.503 255.032 257.452L217.377 219.797C212.326 214.746 212.326 206.558 217.377 201.507C222.427 196.457 230.616 196.457 235.666 201.507L273.322 239.163C278.372 244.213 278.372 252.402 273.322 257.452L270.329 254.459C273.727 251.062 273.727 245.553 270.329 242.155Z" fill="#5F626D"/>
<path d="M216.993 149.058C231.551 163.616 231.551 187.218 216.993 201.776C202.436 216.333 178.833 216.333 164.276 201.776C149.718 187.218 149.718 163.616 164.276 149.058C178.833 134.501 202.436 134.501 216.993 149.058Z" fill="white" fill-opacity="0.2"/>
<path d="M152.825 136.956C173.918 115.863 208.117 115.863 229.211 136.956C250.304 158.05 250.304 192.249 229.211 213.343C208.117 234.436 173.918 234.436 152.825 213.343C131.731 192.249 131.731 158.05 152.825 136.956ZM214.289 198.421C227.142 185.569 227.142 164.73 214.289 151.878C201.437 139.025 180.599 139.025 167.746 151.878C154.893 164.73 154.893 185.569 167.746 198.421C180.599 211.274 201.437 211.274 214.289 198.421Z" fill="#F5F6F8"/>
<path d="M155.817 139.95C136.377 159.39 136.377 190.91 155.818 210.35C175.258 229.79 206.777 229.79 226.218 210.35C245.658 190.91 245.658 159.39 226.218 139.95L229.211 136.957L229.701 137.453C250.302 158.583 250.139 192.414 229.21 213.343C208.117 234.436 173.918 234.436 152.825 213.343C131.732 192.25 131.731 158.05 152.824 136.957L153.321 136.467C174.452 115.865 208.282 116.028 229.211 136.957L226.218 139.95C206.778 120.509 175.257 120.509 155.817 139.95ZM167.746 151.879C155.094 164.53 154.897 184.919 167.153 197.813L167.747 198.421C180.599 211.273 201.436 211.273 214.289 198.421L214.882 197.813C227.138 184.919 226.941 164.53 214.289 151.879C201.437 139.026 180.598 139.026 167.746 151.879ZM164.752 148.885C179.258 134.38 202.777 134.38 217.283 148.885C231.788 163.391 231.787 186.909 217.282 201.415C202.777 215.92 179.259 215.92 164.753 201.415C150.248 186.909 150.247 163.391 164.752 148.885Z" fill="#EBEDF1"/>
<path d="M279.357 219.398C279.357 233.354 257.056 242.673 241.882 242.673C226.708 242.673 222.921 235.349 222.921 221.393C222.921 207.437 224.083 190.47 239.257 190.47C254.432 190.47 279.357 205.442 279.357 219.398Z" fill="#25272F"/>
<path d="M275.829 219.398C275.829 216.957 274.725 214.144 272.423 211.132C270.14 208.147 266.862 205.215 263.023 202.624C255.253 197.378 245.911 193.998 239.258 193.998C236.169 193.998 234.059 194.842 232.518 196.085C230.924 197.37 229.663 199.306 228.712 201.909C226.766 207.234 226.448 214.373 226.448 221.393C226.448 228.246 227.424 232.496 229.472 235.071C231.353 237.436 234.789 239.146 241.882 239.146C248.863 239.146 257.653 236.972 264.621 233.172C271.777 229.271 275.829 224.365 275.829 219.398ZM282.884 219.398C282.884 228.387 275.786 235.119 267.998 239.366C260.022 243.715 250.075 246.201 241.882 246.201C233.8 246.201 227.756 244.248 223.95 239.462C220.311 234.887 219.394 228.496 219.394 221.393C219.394 214.457 219.657 206.134 222.086 199.488C223.322 196.105 225.197 192.926 228.089 190.593C231.033 188.219 234.76 186.943 239.258 186.943C247.778 186.943 258.485 191.048 266.971 196.777C271.26 199.672 275.163 203.102 278.027 206.848C280.872 210.569 282.884 214.861 282.884 219.398Z" fill="#131418"/>
</g>
<defs>
<clipPath id="clip0_3013_16732">
<rect width="285" height="285" fill="white"/>
</clipPath>
<clipPath id="clip1_3013_16732">
<rect width="233.75" height="177.5" fill="white" transform="translate(25.4165 39.1665)"/>
</clipPath>
</defs>
</svg>
