<svg width="200" height="200" viewBox="0 0 200 200" fill="none" xmlns="http://www.w3.org/2000/svg">
<g clip-path="url(#clip0_1473_7294)">
<rect width="200" height="200" rx="2" fill="#EBF0FF"/>
<circle cx="100" cy="35" r="72" fill="#F5F6F8" stroke="#B8BBC4" stroke-width="3.3"/>
<path d="M99.6935 96.9945C98.6589 96.9878 97.715 96.7561 96.8619 96.2992C96.0154 95.8357 95.3268 95.0799 94.7961 94.0319C94.2654 92.9772 94 91.6034 94 89.9104C94 88.2578 94.2385 86.837 94.7155 85.6479C95.1924 84.4588 95.8676 83.5552 96.7409 82.9372C97.621 82.3124 98.6556 82 99.8446 82C100.765 82 101.588 82.178 102.314 82.5341C103.039 82.8834 103.627 83.3705 104.077 83.9952C104.231 84.2059 104.365 84.4265 104.479 84.657C104.843 85.3905 104.195 86.1316 103.377 86.1316C102.762 86.1316 102.262 85.6845 101.89 85.1952C101.877 85.1779 101.864 85.1609 101.85 85.144C101.635 84.8619 101.356 84.6469 101.014 84.4991C100.671 84.3513 100.281 84.2774 99.8446 84.2774C99.146 84.2774 98.5514 84.4756 98.061 84.8719C97.5706 85.2616 97.1944 85.8259 96.9324 86.5649C96.6845 87.2824 96.557 88.1393 96.5498 89.1354C96.5494 89.185 96.5896 89.2252 96.6392 89.2252C96.671 89.2252 96.7004 89.2083 96.7168 89.1811C96.961 88.7767 97.2646 88.4286 97.6277 88.1369C98.0106 87.8346 98.4406 87.6062 98.9176 87.4516C99.4013 87.2904 99.9051 87.2098 100.429 87.2098C101.296 87.2098 102.082 87.4147 102.787 87.8245C103.499 88.2276 104.057 88.7919 104.46 89.5174C104.863 90.2363 105.065 91.0525 105.065 91.9661C105.065 92.9201 104.839 93.78 104.389 94.5458C103.946 95.3117 103.314 95.913 102.495 96.3496C101.682 96.7796 100.748 96.9945 99.6935 96.9945ZM99.6834 94.8683C100.214 94.8683 100.694 94.744 101.124 94.4955C101.554 94.2402 101.894 93.8942 102.142 93.4575C102.397 93.0209 102.525 92.5439 102.525 92.0266C102.525 91.5026 102.404 91.0256 102.162 90.5957C101.921 90.1657 101.585 89.8298 101.155 89.588C100.731 89.3394 100.248 89.2151 99.7036 89.2151C99.1796 89.2151 98.6992 89.3428 98.2626 89.598C97.8259 89.8466 97.4799 90.1892 97.2246 90.6259C96.9693 91.0558 96.835 91.5261 96.8216 92.0367C96.8283 92.5405 96.9559 93.0108 97.2045 93.4475C97.4598 93.8774 97.8024 94.2234 98.2323 94.4854C98.6623 94.7407 99.146 94.8683 99.6834 94.8683Z" fill="#DCDEE4"/>
<path d="M100 -15C101.657 -15 103 -13.6569 103 -12L103 32C103 33.6569 101.657 35 100 35C98.3431 35 97 33.6569 97 32L97 -12C97 -13.6569 98.3431 -15 100 -15Z" fill="#A8BFFF" stroke="#6B8FFF" stroke-width="3"/>
<path d="M138 35C138 36.6569 136.657 38 135 38L103 38C101.343 38 100 36.6569 100 35C100 33.3431 101.343 32 103 32L135 32C136.657 32 138 33.3431 138 35Z" fill="#A8BFFF" stroke="#6B8FFF" stroke-width="3"/>
<circle cx="100" cy="35" r="6.5" fill="#5F626D" stroke="#41444E" stroke-width="3"/>
<path d="M156.401 42.9945C155.373 42.9945 154.453 42.8199 153.64 42.4705C152.827 42.1212 152.189 41.6308 151.726 40.9993C151.542 40.7435 151.394 40.4743 151.28 40.1915C150.995 39.4843 151.632 38.8328 152.394 38.8328H152.547C153.169 38.8328 153.66 39.3593 154.053 39.8405C154.295 40.136 154.621 40.3678 155.031 40.5358C155.441 40.697 155.894 40.7776 156.391 40.7776C156.922 40.7776 157.399 40.6869 157.822 40.5055C158.252 40.3174 158.585 40.0621 158.82 39.7397C159.055 39.4105 159.169 39.0343 159.162 38.6111C159.169 38.161 159.052 37.768 158.81 37.4321C158.575 37.0894 158.225 36.8241 157.762 36.636C157.305 36.4412 156.764 36.3437 156.139 36.3437H155.852C155.293 36.3437 154.839 35.8903 154.839 35.331C154.839 34.7717 155.293 34.3183 155.852 34.3183H156.139C156.657 34.3183 157.113 34.2309 157.51 34.0563C157.913 33.8749 158.222 33.623 158.437 33.3005C158.659 32.978 158.769 32.6085 158.769 32.192C158.769 31.7822 158.672 31.4228 158.477 31.1138C158.289 30.798 158.017 30.5562 157.661 30.3882C157.312 30.2136 156.902 30.1262 156.431 30.1262C155.975 30.1262 155.548 30.2102 155.152 30.3782C154.762 30.5394 154.446 30.7712 154.204 31.0735C153.806 31.575 153.318 32.1316 152.677 32.1316H152.614C151.893 32.1316 151.293 31.5142 151.553 30.8414C151.669 30.5392 151.824 30.2538 152.018 29.9852C152.475 29.3604 153.089 28.8733 153.862 28.524C154.634 28.1747 155.494 28 156.442 28C157.409 28 158.259 28.178 158.991 28.5341C159.73 28.8901 160.301 29.3772 160.704 29.9952C161.114 30.6066 161.312 31.2885 161.299 32.0409C161.312 32.5716 161.208 33.0586 160.986 33.502C160.765 33.9387 160.449 34.3015 160.039 34.5903C159.643 34.8698 159.19 35.0675 158.68 35.1835C158.65 35.1904 158.628 35.2171 158.628 35.248C158.628 35.281 158.653 35.3089 158.686 35.3134C159.346 35.4045 159.912 35.6035 160.382 35.9104C160.865 36.2195 161.235 36.6158 161.49 37.0995C161.745 37.5765 161.866 38.124 161.853 38.7421C161.866 39.5415 161.635 40.267 161.158 40.9187C160.687 41.5636 160.036 42.0708 159.203 42.4403C158.376 42.8098 157.443 42.9945 156.401 42.9945Z" fill="#DCDEE4"/>
<path d="M43.3811 28.0002C44.4157 28.0002 45.3562 28.2286 46.2027 28.6854C47.0558 29.1422 47.7444 29.8946 48.2684 30.9426C48.7992 31.9906 49.0645 33.3611 49.0645 35.054C49.0712 36.7067 48.8361 38.1309 48.3591 39.3267C47.8889 40.5158 47.2104 41.4261 46.3236 42.0575C45.4435 42.6823 44.409 42.9947 43.2199 42.9947C42.3062 42.9947 41.4833 42.8167 40.751 42.4606C40.0188 42.0979 39.4276 41.6041 38.9775 40.9793C38.8219 40.7611 38.6869 40.5329 38.5722 40.2946C38.2211 39.5647 38.8614 38.8329 39.6714 38.8329C40.2876 38.8329 40.7883 39.2856 41.1559 39.7801C41.1685 39.7971 41.1813 39.8139 41.1944 39.8305C41.4228 40.1127 41.7083 40.331 42.0509 40.4855C42.3936 40.64 42.7832 40.7173 43.2199 40.7173C43.9185 40.7173 44.5131 40.5191 45.0035 40.1228C45.5006 39.7264 45.8768 39.1554 46.1321 38.4097C46.3859 37.6808 46.5168 36.8195 46.5247 35.8259C46.5252 35.7725 46.4818 35.7292 46.4284 35.7292C46.3946 35.7292 46.3633 35.7469 46.3454 35.7756C46.1016 36.1659 45.7988 36.5065 45.4368 36.7974C45.0606 37.0997 44.6307 37.3314 44.147 37.4927C43.67 37.6539 43.1661 37.7345 42.6354 37.7345C41.7755 37.7345 40.9929 37.533 40.2875 37.1299C39.5821 36.7201 39.0245 36.1558 38.6147 35.437C38.2049 34.7114 38 33.9019 38 33.0084C38 32.0545 38.2217 31.1979 38.6651 30.4388C39.1152 29.6729 39.7467 29.075 40.5596 28.6451C41.3791 28.2084 42.3197 27.9934 43.3811 28.0002ZM43.3811 30.1163C42.8571 30.1163 42.3768 30.244 41.9401 30.4992C41.5101 30.7478 41.1709 31.0871 40.9223 31.517C40.6738 31.947 40.5495 32.4206 40.5495 32.9379C40.5562 33.4552 40.6805 33.9288 40.9223 34.3587C41.1642 34.782 41.4967 35.1179 41.9199 35.3664C42.3432 35.615 42.8202 35.7393 43.3509 35.7393C43.8816 35.7393 44.3653 35.6083 44.802 35.3463C45.2386 35.0843 45.5846 34.7383 45.8399 34.3083C46.1019 33.8717 46.2295 33.4081 46.2228 32.9177C46.2228 32.4139 46.0985 31.9503 45.85 31.5271C45.6014 31.0971 45.2621 30.7545 44.8322 30.4992C44.409 30.244 43.9253 30.1163 43.3811 30.1163Z" fill="#DCDEE4"/>
<path d="M99.049 92C102.859 92.0002 103.209 99.6094 103.213 109.032C108.518 103.195 117.866 102.678 120.803 104.429C124.123 106.409 115.684 110.539 111.083 118.77C110.854 119.18 110.627 119.568 110.407 119.938C144.388 125.891 169.974 151.984 169.974 184.151C169.974 188.835 171.022 193.483 173.058 197.701C176.711 205.268 178.724 213.445 178.724 221.917C178.724 239.715 172.395 258.748 158.307 270.677C144.294 282.541 122.01 286.439 100.041 286.885V286.887C100.029 286.887 100.018 286.886 100.007 286.886C99.9961 286.886 99.9851 286.887 99.9742 286.887V286.885C78.0045 286.439 55.7205 282.541 41.7076 270.677C27.6198 258.748 21.291 239.715 21.291 221.917C21.291 213.446 23.3029 205.268 26.9556 197.701C28.9916 193.483 30.0414 188.835 30.0414 184.151C30.0414 150.627 57.8303 123.7 93.9511 119.293C92.0842 115.746 90.7178 110.621 90.7178 105.385C90.7178 95.8806 95.2147 92 99.049 92Z" fill="#25272F" stroke="#131418" stroke-width="4.78038" stroke-linejoin="round"/>
<path d="M100.614 182.349H100.858C106.493 182.374 111.519 186.271 113.072 191.724C114.282 195.971 111.208 200.304 106.604 200.966C104.538 201.264 102.469 201.47 100.736 201.47C99.0042 201.47 96.9355 201.264 94.8701 200.966C90.2659 200.304 87.1917 195.971 88.4014 191.724C89.9548 186.271 94.9797 182.374 100.614 182.349Z" fill="#6B8FFF" stroke="#3164FF" stroke-width="2.86823"/>
<circle cx="132.766" cy="179.481" r="10.5169" fill="#6B8FFF" stroke="#3164FF" stroke-width="2.86823"/>
<circle cx="132.516" cy="170.534" r="4.78039" fill="#EBEDF1"/>
<circle cx="68.2566" cy="179.481" r="10.5169" fill="#6B8FFF" stroke="#3164FF" stroke-width="2.86823"/>
<circle cx="68.0065" cy="170.534" r="4.78039" fill="#EBEDF1"/>
<path d="M25.0879 196.213C26.9167 196.213 28.5803 197.248 29.457 198.853C32.8031 204.979 41.4962 219.22 47.2285 213.488C50.1255 210.591 55.4225 210.794 57.5195 214.313C63.5274 224.397 74.299 238.629 85.5303 234.763C89.3605 233.444 93.0715 230.08 95.8105 227.067C98.1023 224.547 102.421 224.547 104.713 227.067C107.452 230.08 111.163 233.444 114.993 234.763C126.224 238.629 136.996 224.397 143.004 214.313C145.101 210.794 150.398 210.591 153.295 213.488C159.027 219.22 167.719 204.979 171.065 198.853C171.874 197.372 173.353 196.378 175.013 196.232C175.079 196.375 175.144 196.518 175.212 196.66C179.01 204.529 181.114 213.061 181.114 221.917C181.114 240.201 174.623 259.994 159.853 272.501C145.169 284.933 122.149 288.826 100.09 289.273L100.089 289.272C100.078 289.273 100.067 289.273 100.056 289.273L100.057 289.274H100.056C100.048 289.275 100.036 289.275 100.022 289.275C100.017 289.275 100.012 289.274 100.007 289.274C100.002 289.274 99.9969 289.275 99.9922 289.275C99.9791 289.275 99.9678 289.275 99.96 289.274V289.273C99.9486 289.273 99.9371 289.273 99.9258 289.272V289.273C77.8664 288.826 54.8462 284.933 40.1631 272.501C25.3925 259.994 18.9015 240.201 18.9014 221.917C18.9014 213.061 21.0062 204.53 24.8037 196.662C24.8755 196.513 24.9435 196.363 25.0127 196.213H25.0879Z" fill="white"/>
<path d="M99.0493 92V89.6098H99.0491L99.0493 92ZM103.214 109.031L100.824 109.032C100.825 110.02 101.432 110.905 102.353 111.261C103.274 111.617 104.319 111.37 104.983 110.639L103.214 109.031ZM120.803 104.429L122.028 102.376L122.027 102.376L120.803 104.429ZM111.083 118.771L113.17 119.937V119.937L111.083 118.771ZM110.407 119.938L108.353 118.716C107.951 119.391 107.907 120.221 108.234 120.935C108.562 121.65 109.22 122.157 109.994 122.293L110.407 119.938ZM169.974 184.151H167.584V184.151L169.974 184.151ZM173.06 197.698L170.907 198.737V198.737L173.06 197.698ZM178.724 221.916L181.114 221.916V221.916H178.724ZM158.308 270.676L159.853 272.5L159.853 272.5L158.308 270.676ZM100.042 286.883L99.993 284.493C98.6921 284.519 97.6513 285.582 97.6513 286.883H100.042ZM100.042 286.885L99.993 289.274C100.635 289.287 101.256 289.041 101.714 288.592C102.173 288.142 102.432 287.527 102.432 286.885H100.042ZM100.008 286.884L100.056 284.494C100.024 284.493 99.9918 284.493 99.9595 284.494L100.008 286.884ZM99.9751 286.885H97.5849C97.5849 287.527 97.8433 288.142 98.3019 288.592C98.7605 289.041 99.3807 289.287 100.023 289.274L99.9751 286.885ZM99.9751 286.883H102.365C102.365 285.582 101.324 284.52 100.024 284.493L99.9751 286.883ZM41.7085 270.676L40.164 272.5H40.164L41.7085 270.676ZM21.2925 221.916H18.9023V221.916L21.2925 221.916ZM26.9565 197.7L24.804 196.661L24.804 196.661L26.9565 197.7ZM30.0415 184.151L32.4317 184.151V184.151H30.0415ZM93.9526 119.293L94.2421 121.666C95.022 121.57 95.7054 121.098 96.07 120.402C96.4346 119.706 96.4337 118.875 96.0678 118.18L93.9526 119.293ZM90.7183 105.385L88.3281 105.385V105.385H90.7183ZM99.0493 92V94.3902C99.0864 94.3902 99.098 94.3945 99.0926 94.393C99.0866 94.3914 99.0823 94.3889 99.0847 94.3903C99.0897 94.3934 99.1761 94.4469 99.3129 94.654C99.6166 95.1135 99.946 95.9833 100.208 97.4131C100.727 100.244 100.822 104.284 100.824 109.032L103.214 109.031L105.605 109.03C105.602 104.356 105.52 99.88 104.91 96.5514C104.608 94.9012 104.135 93.2798 103.301 92.0182C102.396 90.6486 100.979 89.6098 99.0493 89.6098V92ZM103.214 109.031L104.983 110.639C107.196 108.205 110.334 106.805 113.343 106.233C114.835 105.949 116.232 105.882 117.377 105.971C118.577 106.065 119.294 106.312 119.579 106.482L120.803 104.429L122.027 102.376C120.844 101.67 119.292 101.325 117.747 101.205C116.148 101.081 114.325 101.18 112.451 101.537C108.725 102.245 104.538 104.022 101.446 107.424L103.214 109.031ZM120.803 104.429L119.579 106.482C119.656 106.527 119.33 106.352 119.206 105.844C119.094 105.389 119.266 105.135 119.193 105.281C119 105.668 118.421 106.347 117.209 107.58C115.018 109.809 111.489 113.147 108.997 117.604L111.083 118.771L113.17 119.937C115.279 116.163 118.27 113.32 120.618 110.931C121.677 109.855 122.872 108.616 123.471 107.414C123.795 106.766 124.117 105.8 123.849 104.707C123.569 103.563 122.781 102.825 122.028 102.376L120.803 104.429ZM111.083 118.771L108.997 117.604C108.783 117.988 108.567 118.356 108.353 118.716L110.407 119.938L112.46 121.161C112.687 120.782 112.926 120.373 113.17 119.937L111.083 118.771ZM110.407 119.938L109.994 122.293C143.076 128.087 167.584 153.375 167.584 184.151H169.974H172.364C172.364 150.592 145.702 123.694 110.819 117.584L110.407 119.938ZM169.974 184.151L167.584 184.151C167.584 189.19 168.714 194.192 170.907 198.737L173.06 197.698L175.213 196.659C173.335 192.77 172.364 188.479 172.364 184.151L169.974 184.151ZM173.06 197.698L170.907 198.737C174.415 206.005 176.334 213.829 176.334 221.916H178.724H181.114C181.114 213.06 179.011 204.528 175.213 196.659L173.06 197.698ZM178.724 221.916L176.334 221.916C176.334 239.23 170.169 257.501 156.764 268.852L158.308 270.676L159.853 272.5C174.623 259.993 181.114 240.2 181.114 221.916L178.724 221.916ZM158.308 270.676L156.764 268.852C143.421 280.149 121.873 284.049 99.993 284.493L100.042 286.883L100.09 289.273C122.149 288.825 145.169 284.932 159.853 272.5L158.308 270.676ZM100.042 286.883H97.6513V286.885H100.042H102.432V286.883H100.042ZM100.042 286.885L100.09 284.495C100.098 284.495 100.104 284.495 100.106 284.495C100.108 284.496 100.11 284.496 100.106 284.495C100.104 284.495 100.097 284.495 100.089 284.495C100.081 284.495 100.07 284.494 100.056 284.494L100.008 286.884L99.9602 289.273C99.9521 289.273 99.9461 289.273 99.9437 289.273C99.9416 289.273 99.9403 289.273 99.9437 289.273C99.9458 289.273 99.9526 289.273 99.9601 289.274C99.9681 289.274 99.9795 289.274 99.993 289.274L100.042 286.885ZM100.008 286.884L99.9595 284.494C99.946 284.494 99.9346 284.495 99.9268 284.495C99.9194 284.495 99.9126 284.495 99.9106 284.495C99.9073 284.496 99.9086 284.496 99.9107 284.495C99.9131 284.495 99.9192 284.495 99.9274 284.495L99.9751 286.885L100.023 289.274C100.036 289.274 100.048 289.274 100.056 289.274C100.064 289.273 100.071 289.273 100.073 289.273C100.076 289.273 100.075 289.273 100.073 289.273C100.071 289.273 100.065 289.273 100.057 289.273L100.008 286.884ZM99.9751 286.885H102.365V286.883H99.9751H97.5849V286.885H99.9751ZM99.9751 286.883L100.024 284.493C78.1435 284.049 56.5957 280.149 43.253 268.852L41.7085 270.676L40.164 272.5C54.8472 284.932 77.8671 288.825 99.9266 289.273L99.9751 286.883ZM41.7085 270.676L43.253 268.852C29.848 257.501 23.6828 239.23 23.6827 221.916L21.2925 221.916L18.9023 221.916C18.9024 240.2 25.3933 259.993 40.164 272.5L41.7085 270.676ZM21.2925 221.916H23.6827C23.6827 213.83 25.6018 206.006 29.1091 198.739L26.9565 197.7L24.804 196.661C21.0064 204.529 18.9023 213.06 18.9023 221.916H21.2925ZM26.9565 197.7L29.1091 198.739C31.3034 194.193 32.4317 189.19 32.4317 184.151L30.0415 184.151L27.6513 184.151C27.6513 188.48 26.6814 192.771 24.804 196.661L26.9565 197.7ZM30.0415 184.151H32.4317C32.4317 152.082 59.057 125.957 94.2421 121.666L93.9526 119.293L93.6632 116.92C56.6057 121.441 27.6513 149.171 27.6513 184.151H30.0415ZM93.9526 119.293L96.0678 118.18C94.389 114.99 93.1085 110.25 93.1085 105.385H90.7183H88.3281C88.3281 110.992 89.7823 116.501 91.8375 120.406L93.9526 119.293ZM90.7183 105.385L93.1085 105.385C93.1086 96.4954 97.1445 94.3903 99.0495 94.3902L99.0493 92L99.0491 89.6098C93.2859 89.6102 88.3282 95.2665 88.3281 105.385L90.7183 105.385Z" fill="#131418"/>
<path d="M28.0781 196.213C28.0781 196.213 40.0046 220.712 47.229 213.488C50.126 210.591 55.4233 210.794 57.5203 214.313C63.5282 224.397 74.2993 238.629 85.5306 234.762C89.3608 233.444 93.0715 230.08 95.8105 227.067C98.1022 224.546 102.422 224.546 104.714 227.067C107.453 230.08 111.163 233.444 114.993 234.762C126.225 238.629 136.996 224.397 143.004 214.313C145.101 210.794 150.398 210.591 153.295 213.488C160.52 220.712 172.446 196.213 172.446 196.213" stroke="#131418" stroke-width="2.86823" stroke-linejoin="round"/>
</g>
<defs>
<clipPath id="clip0_1473_7294">
<rect width="200" height="200" rx="2" fill="white"/>
</clipPath>
</defs>
</svg>
