<svg width="303" height="303" viewBox="0 0 303 303" fill="none" xmlns="http://www.w3.org/2000/svg">
<g style="mix-blend-mode:luminosity" opacity="0.34">
<path d="M65.4912 205.532C57.3789 202.303 51.9862 198.793 54.385 191.26C56.1378 186.857 64.7571 183.503 72.8694 186.732C80.9817 189.961 88.9531 196.674 87.2003 201.077C85.4475 205.48 73.6035 208.762 65.4912 205.532Z" fill="#25272F" stroke="#131418" stroke-width="5" stroke-linejoin="round"/>
<path d="M49.2517 216.647C54.4909 216.647 66.57 217.647 70.6177 223.855C73.6923 228.57 70.6176 241.614 63.5704 246.647C60.0703 249.147 52.4537 250.167 49.2517 246.148C46.0496 242.128 47.2517 237.148 47.2517 237.148C47.2517 237.148 35.6178 235.474 35.6177 226.311C35.6176 217.147 44.596 216.648 49.2517 216.647Z" fill="#25272F" stroke="#131418" stroke-width="5" stroke-linejoin="round"/>
<path d="M208.786 63.8783C208.274 65.6335 206.453 66.6579 204.687 66.1846C202.919 65.711 201.855 63.9115 202.29 62.1343L207.724 39.9744C208.24 37.8719 210.383 36.6039 212.474 37.1642C214.567 37.7249 215.789 39.8969 215.181 41.9764L208.786 63.8783ZM201.361 78.7033C200.573 78.4922 199.895 78.0976 199.326 77.5195C198.762 76.9225 198.372 76.2402 198.156 75.4727C197.963 74.6912 197.973 73.9034 198.186 73.109C198.394 72.3335 198.774 71.665 199.326 71.1036C199.903 70.5282 200.579 70.1418 201.356 69.9445C202.137 69.7282 202.922 69.7256 203.71 69.9367C204.479 70.1427 205.138 70.5323 205.688 71.1054C206.262 71.6646 206.655 72.3374 206.866 73.1239C207.083 73.8914 207.087 74.6629 206.879 75.4383C206.667 76.2327 206.272 76.9176 205.696 77.493C205.124 78.0494 204.445 78.4452 203.659 78.6804C202.896 78.9017 202.13 78.9093 201.361 78.7033Z" fill="#F34643"/>
<path d="M216.728 94.6924C216.76 94.5956 217.017 93.7148 217.661 91.7735C218.065 90.6631 218.626 89.2984 218.985 88.4595C219.344 87.6206 219.486 87.3488 219.728 87.0195" stroke="#A8BFFF" stroke-width="3.3" stroke-linecap="round"/>
<path d="M220.419 99.5437C220.402 99.5437 220.386 99.5437 221.168 99.2516C221.95 98.9596 223.53 98.3755 224.466 98.0135C225.402 97.6514 225.647 97.5291 226.14 97.2886" stroke="#A8BFFF" stroke-width="3.3" stroke-linecap="round"/>
<path d="M113 253.143C113 256.186 113.802 258.456 116.61 260.571C119.917 263.063 126.561 264 131.951 264C141.919 264 150 261.485 150 254.857C150 248.23 141.919 240 131.951 240C121.983 240 113 246.515 113 253.143Z" fill="#131418" stroke="#131418" stroke-width="3"/>
<path d="M143.545 59.1465C145.487 49.3969 150.893 46.3348 154.826 47.1182C158.734 47.8971 157.539 55.7734 155.618 65.4395C162.252 60.5364 171.945 61.9154 174.601 64.3115C177.602 67.0211 168.103 69.5339 161.701 77.0371C161.639 77.1099 161.575 77.1806 161.514 77.252C197.65 83.0687 225.014 110.595 225.014 144.617C225.014 149.516 226.11 154.377 228.239 158.789C232.06 166.704 234.165 175.257 234.165 184.117C234.165 202.734 227.546 222.641 212.811 235.117C198.154 247.527 174.846 251.604 151.867 252.07V252.072C151.856 252.072 151.844 252.072 151.832 252.071C151.821 252.072 151.809 252.072 151.798 252.072V252.07C128.819 251.604 105.511 247.527 90.8545 235.117C76.1196 222.641 69.5 202.734 69.5 184.117C69.5 175.257 71.6044 166.704 75.4248 158.789C77.5544 154.377 78.6523 149.516 78.6523 144.617C78.6523 109.68 107.507 81.5925 145.087 76.8301C143.103 72.8932 142.202 65.8901 143.545 59.1465Z" fill="#25272F"/>
<path d="M143.545 59.1465L141.093 58.6582L141.093 58.6582L143.545 59.1465ZM154.826 47.1182L155.315 44.6664L155.315 44.6663L154.826 47.1182ZM155.618 65.4395L153.166 64.9522C152.965 65.9651 153.407 66.9975 154.279 67.5506C155.151 68.1037 156.274 68.0637 157.104 67.4499L155.618 65.4395ZM174.601 64.3115L176.276 62.4558L176.275 62.4555L174.601 64.3115ZM161.701 77.0371L159.799 75.4145L159.799 75.4145L161.701 77.0371ZM161.514 77.252L159.62 75.6199C159.029 76.306 158.855 77.2582 159.165 78.1091C159.476 78.9599 160.222 79.5762 161.116 79.7202L161.514 77.252ZM225.014 144.617H222.514V144.617H225.014ZM228.239 158.789L225.988 159.876V159.876L228.239 158.789ZM234.165 184.117H236.665V184.117H234.165ZM212.811 235.117L214.426 237.025L214.426 237.025L212.811 235.117ZM151.867 252.07L151.816 249.571C150.456 249.598 149.367 250.709 149.367 252.07H151.867ZM151.867 252.072L151.816 254.572C152.488 254.585 153.137 254.328 153.617 253.858C154.097 253.388 154.367 252.744 154.367 252.072H151.867ZM151.832 252.071L151.882 249.572C151.849 249.571 151.815 249.571 151.781 249.572L151.832 252.071ZM151.798 252.072H149.298C149.298 252.744 149.568 253.387 150.048 253.858C150.527 254.328 151.176 254.585 151.848 254.572L151.798 252.072ZM151.798 252.07H154.298C154.298 250.709 153.209 249.598 151.849 249.571L151.798 252.07ZM90.8545 235.117L89.239 237.025L89.239 237.025L90.8545 235.117ZM69.5 184.117H67V184.117H69.5ZM75.4248 158.789L73.1734 157.702L73.1733 157.702L75.4248 158.789ZM78.6523 144.617H81.1523V144.617H78.6523ZM145.087 76.8301L145.401 79.3102C146.207 79.2082 146.913 78.7212 147.294 78.0044C147.675 77.2875 147.685 76.4301 147.319 75.705L145.087 76.8301ZM143.545 59.1465L145.997 59.6348C147.813 50.5155 152.384 49.1808 154.338 49.57L154.826 47.1182L155.315 44.6663C149.402 43.4888 143.16 48.2782 141.093 58.6582L143.545 59.1465ZM154.826 47.1182L154.337 49.5699C154.376 49.5775 154.386 49.5843 154.381 49.5817C154.375 49.5788 154.371 49.5753 154.374 49.5773C154.378 49.5815 154.456 49.6541 154.554 49.8944C154.772 50.4279 154.932 51.3875 154.908 52.9076C154.862 55.918 154.134 60.0814 153.166 64.9522L155.618 65.4395L158.07 65.9267C159.023 61.1314 159.853 56.5236 159.908 52.9846C159.935 51.2301 159.781 49.4704 159.184 48.006C158.535 46.4161 157.295 45.061 155.315 44.6664L154.826 47.1182ZM155.618 65.4395L157.104 67.4499C159.871 65.405 163.376 64.6102 166.579 64.6382C168.168 64.6521 169.615 64.869 170.771 65.1941C171.982 65.5347 172.668 65.9351 172.926 66.1675L174.601 64.3115L176.275 62.4555C175.205 61.4899 173.684 60.8194 172.124 60.3807C170.509 59.9265 168.619 59.6559 166.623 59.6384C162.657 59.6037 157.999 60.5709 154.132 63.429L155.618 65.4395ZM174.601 64.3115L172.925 66.1673C172.995 66.2301 172.697 65.9837 172.673 65.4379C172.652 64.9477 172.879 64.7223 172.775 64.8568C172.498 65.2144 171.765 65.7929 170.271 66.8097C167.567 68.6488 163.266 71.3516 159.799 75.4145L161.701 77.0371L163.603 78.6597C166.538 75.2194 170.187 72.9142 173.083 70.9437C174.389 70.0557 175.868 69.029 176.728 67.9189C177.192 67.3196 177.72 66.3947 177.668 65.2191C177.614 63.988 176.957 63.0704 176.276 62.4558L174.601 64.3115ZM161.701 77.0371L159.799 75.4145C159.694 75.5378 159.782 75.4323 159.62 75.6199L161.514 77.252L163.407 78.884C163.427 78.8608 163.448 78.8371 163.484 78.7971C163.515 78.7615 163.558 78.7125 163.603 78.6597L161.701 77.0371ZM161.514 77.252L161.116 79.7202C196.301 85.3836 222.514 112.068 222.514 144.617H225.014H227.514C227.514 109.122 199 80.7537 161.911 74.7837L161.514 77.252ZM225.014 144.617H222.514C222.514 149.887 223.692 155.12 225.988 159.876L228.239 158.789L230.491 157.702C228.527 153.634 227.514 149.145 227.514 144.617H225.014ZM228.239 158.789L225.988 159.876C229.657 167.477 231.665 175.66 231.665 184.117H234.165H236.665C236.665 174.854 234.463 165.932 230.491 157.702L228.239 158.789ZM234.165 184.117H231.665C231.665 202.226 225.216 221.338 211.195 233.209L212.811 235.117L214.426 237.025C229.875 223.944 236.665 203.241 236.665 184.117H234.165ZM212.811 235.117L211.195 233.209C197.239 245.026 174.701 249.107 151.816 249.571L151.867 252.07L151.918 254.57C174.991 254.102 199.068 250.028 214.426 237.025L212.811 235.117ZM151.867 252.07H149.367V252.072H151.867H154.367V252.07H151.867ZM151.867 252.072L151.918 249.573C151.924 249.573 151.929 249.573 151.93 249.573C151.931 249.573 151.932 249.573 151.928 249.573C151.926 249.573 151.92 249.573 151.912 249.573C151.905 249.572 151.895 249.572 151.882 249.572L151.832 252.071L151.782 254.571C151.775 254.571 151.771 254.571 151.769 254.57C151.768 254.57 151.767 254.57 151.771 254.571C151.773 254.571 151.78 254.571 151.787 254.571C151.794 254.571 151.804 254.572 151.816 254.572L151.867 252.072ZM151.832 252.071L151.781 249.572C151.768 249.572 151.757 249.572 151.749 249.573C151.742 249.573 151.735 249.573 151.733 249.573C151.73 249.573 151.731 249.573 151.733 249.573C151.735 249.573 151.74 249.573 151.748 249.573L151.798 252.072L151.848 254.572C151.861 254.572 151.872 254.571 151.88 254.571C151.888 254.571 151.894 254.571 151.897 254.57C151.9 254.57 151.899 254.57 151.898 254.57C151.896 254.57 151.891 254.571 151.883 254.571L151.832 252.071ZM151.798 252.072H154.298V252.07H151.798H149.298V252.072H151.798ZM151.798 252.07L151.849 249.571C128.964 249.107 106.426 245.026 92.47 233.209L90.8545 235.117L89.239 237.025C104.597 250.029 128.674 254.102 151.747 254.57L151.798 252.07ZM90.8545 235.117L92.47 233.209C78.4492 221.338 72 202.226 72 184.117H69.5H67C67 203.241 73.7899 223.944 89.239 237.025L90.8545 235.117ZM69.5 184.117H72C72 175.66 74.0076 167.477 77.6763 159.876L75.4248 158.789L73.1733 157.702C69.2012 165.932 67 174.854 67 184.117H69.5ZM75.4248 158.789L77.6762 159.876C79.9715 155.121 81.1523 149.888 81.1523 144.617H78.6523H76.1523C76.1523 149.145 75.1373 153.634 73.1734 157.702L75.4248 158.789ZM78.6523 144.617H81.1523C81.1523 111.196 108.798 83.949 145.401 79.3102L145.087 76.8301L144.773 74.3499C106.217 79.2361 76.1523 108.164 76.1523 144.617H78.6523ZM145.087 76.8301L147.319 75.705C145.641 72.3751 144.736 65.964 145.997 59.6348L143.545 59.1465L141.093 58.6582C139.668 65.8163 140.565 73.4114 142.854 77.9551L145.087 76.8301Z" fill="#131418"/>
<path d="M73.4717 157.231C75.3846 157.231 77.125 158.313 78.042 159.992C81.5418 166.4 90.6333 181.295 96.6289 175.3C99.659 172.27 105.2 172.482 107.394 176.163C113.677 186.71 124.943 201.596 136.69 197.552C140.697 196.173 144.578 192.654 147.442 189.503C149.839 186.866 154.358 186.866 156.755 189.503C159.62 192.654 163.501 196.173 167.507 197.552C179.254 201.596 190.52 186.71 196.804 176.163C198.997 172.482 204.538 172.27 207.568 175.3C213.564 181.295 222.655 166.4 226.155 159.992C227.001 158.444 228.546 157.406 230.281 157.253C230.35 157.403 230.419 157.553 230.49 157.701C234.462 165.931 236.665 174.853 236.665 184.116C236.665 203.24 229.875 223.943 214.426 237.024C199.068 250.028 174.991 254.1 151.918 254.568L151.917 254.567C151.905 254.568 151.894 254.568 151.882 254.568L151.883 254.569H151.896C151.894 254.569 151.887 254.57 151.88 254.57C151.872 254.571 151.861 254.57 151.848 254.57C151.842 254.57 151.837 254.569 151.832 254.569C151.827 254.569 151.822 254.57 151.816 254.57C151.804 254.57 151.793 254.571 151.786 254.57C151.779 254.57 151.773 254.569 151.771 254.569H151.781V254.568C151.77 254.568 151.758 254.568 151.747 254.567V254.568C128.674 254.1 104.597 250.028 89.2393 237.024C73.7902 223.943 67 203.24 67 184.116C67 174.853 69.2017 165.931 73.1738 157.701C73.2489 157.546 73.3203 157.388 73.3926 157.231H73.4717Z" fill="white"/>
<path d="M73.4717 173.231C75.3846 173.231 77.125 174.313 78.042 175.992C81.5418 182.4 90.6333 197.295 96.6289 191.3C99.659 188.27 105.2 188.482 107.394 192.163C113.677 202.71 124.943 217.596 136.69 213.552C140.697 212.173 144.578 208.654 147.442 205.503C149.839 202.866 154.358 202.866 156.755 205.503C159.62 208.654 163.501 212.173 167.507 213.552C179.254 217.596 190.52 202.71 196.804 192.163C198.997 188.482 204.538 188.27 207.568 191.3C213.564 197.295 222.655 182.4 226.155 175.992C227.072 174.313 228.813 173.231 230.726 173.231H235.643C236.314 176.791 236.665 180.426 236.665 184.116C236.665 203.24 229.875 223.943 214.426 237.024C199.068 250.028 174.991 254.1 151.918 254.568L151.917 254.567C151.905 254.568 151.894 254.568 151.882 254.568L151.883 254.569H151.896C151.894 254.569 151.887 254.57 151.88 254.57C151.872 254.571 151.861 254.57 151.848 254.57C151.842 254.57 151.837 254.569 151.832 254.569C151.827 254.569 151.822 254.57 151.816 254.57C151.804 254.57 151.793 254.571 151.786 254.57C151.779 254.57 151.773 254.569 151.771 254.569H151.781V254.568C151.77 254.568 151.758 254.568 151.747 254.567V254.568C128.674 254.1 104.597 250.028 89.2393 237.024C73.7902 223.943 67 203.24 67 184.116C67 180.426 67.351 176.791 68.0225 173.231H73.4717Z" fill="#D6E0FF"/>
<path d="M76.5986 157.231C76.5986 157.231 89.073 182.856 96.6292 175.3C99.6594 172.27 105.2 172.482 107.393 176.163C113.677 186.711 124.943 201.596 136.69 197.552C140.697 196.173 144.578 192.654 147.443 189.503C149.84 186.866 154.358 186.866 156.755 189.503C159.62 192.655 163.501 196.173 167.507 197.552C179.254 201.596 190.52 186.711 196.804 176.163C198.997 172.482 204.538 172.27 207.568 175.3C215.124 182.856 227.599 157.231 227.599 157.231" stroke="#131418" stroke-width="3" stroke-linejoin="round"/>
<path d="M143.545 59.1445L141.093 58.6562L141.093 58.6562L143.545 59.1445ZM154.826 47.1162L155.315 44.6644L155.315 44.6644L154.826 47.1162ZM155.618 65.4375L153.166 64.9503C152.965 65.9632 153.407 66.9955 154.279 67.5487C155.151 68.1018 156.274 68.0618 157.104 67.448L155.618 65.4375ZM174.601 64.3096L176.276 62.4538L176.275 62.4535L174.601 64.3096ZM161.701 77.0352L159.799 75.4125L159.799 75.4126L161.701 77.0352ZM161.514 77.25L159.62 75.6179C159.029 76.304 158.855 77.2563 159.165 78.1071C159.476 78.9579 160.222 79.5743 161.116 79.7182L161.514 77.25ZM225.014 144.615H227.514V144.615L225.014 144.615ZM228.239 158.787L225.988 159.874V159.874L228.239 158.787ZM234.165 184.115H236.665V184.115L234.165 184.115ZM212.811 235.115L214.426 237.023L214.426 237.023L212.811 235.115ZM151.867 252.068L151.816 249.569C150.456 249.596 149.367 250.707 149.367 252.068H151.867ZM151.867 252.07L151.816 254.57C152.488 254.583 153.137 254.326 153.617 253.856C154.097 253.386 154.367 252.742 154.367 252.07H151.867ZM151.832 252.069L151.882 249.57C151.849 249.569 151.815 249.569 151.781 249.57L151.832 252.069ZM151.798 252.07H149.298C149.298 252.742 149.568 253.385 150.048 253.856C150.527 254.326 151.176 254.583 151.848 254.57L151.798 252.07ZM151.798 252.068H154.298C154.298 250.707 153.209 249.596 151.849 249.569L151.798 252.068ZM90.8545 235.115L89.239 237.023L89.239 237.023L90.8545 235.115ZM69.5 184.115L67 184.115V184.115H69.5ZM75.4248 158.787L73.1734 157.7L73.1734 157.7L75.4248 158.787ZM78.6523 144.615L76.1523 144.615V144.615H78.6523ZM145.087 76.8281L145.401 79.3083C146.207 79.2062 146.913 78.7193 147.294 78.0024C147.675 77.2856 147.685 76.4282 147.319 75.7031L145.087 76.8281ZM143.545 59.1445L145.997 59.6329C147.813 50.5136 152.384 49.1788 154.338 49.5681L154.826 47.1162L155.315 44.6644C149.402 43.4868 143.16 48.2762 141.093 58.6562L143.545 59.1445ZM154.826 47.1162L154.338 49.568C154.376 49.5756 154.386 49.5824 154.381 49.5797C154.375 49.5768 154.372 49.5733 154.374 49.5753C154.378 49.5795 154.456 49.6521 154.554 49.8925C154.772 50.426 154.932 51.3855 154.908 52.9057C154.862 55.9161 154.134 60.0795 153.166 64.9503L155.618 65.4375L158.07 65.9247C159.023 61.1295 159.853 56.5217 159.908 52.9827C159.935 51.2282 159.781 49.4685 159.184 48.004C158.535 46.4141 157.295 45.059 155.315 44.6644L154.826 47.1162ZM155.618 65.4375L157.104 67.448C159.871 65.4031 163.376 64.6083 166.579 64.6363C168.168 64.6502 169.614 64.8671 170.771 65.1922C171.982 65.5328 172.668 65.9332 172.926 66.1656L174.601 64.3096L176.275 62.4535C175.205 61.4879 173.684 60.8174 172.124 60.3788C170.508 59.9246 168.619 59.654 166.623 59.6365C162.657 59.6018 157.999 60.569 154.132 63.427L155.618 65.4375ZM174.601 64.3096L172.925 66.1653C172.995 66.2281 172.697 65.9817 172.673 65.4359C172.652 64.9457 172.879 64.7203 172.775 64.8549C172.498 65.2124 171.765 65.791 170.271 66.8078C167.567 68.6469 163.266 71.3497 159.799 75.4125L161.701 77.0352L163.603 78.6578C166.538 75.2175 170.187 72.9123 173.083 70.9418C174.389 70.0537 175.868 69.0271 176.728 67.9169C177.192 67.3176 177.72 66.3928 177.668 65.2172C177.614 63.9861 176.957 63.0684 176.276 62.4538L174.601 64.3096ZM161.701 77.0352L159.799 75.4126C159.694 75.5358 159.782 75.4303 159.62 75.6179L161.514 77.25L163.407 78.8821C163.427 78.8589 163.448 78.8352 163.484 78.7952C163.515 78.7595 163.558 78.7105 163.603 78.6577L161.701 77.0352ZM161.514 77.25L161.116 79.7182C196.301 85.3817 222.514 112.066 222.514 144.615L225.014 144.615L227.514 144.615C227.514 109.12 199 80.7517 161.911 74.7818L161.514 77.25ZM225.014 144.615H222.514C222.514 149.885 223.692 155.118 225.988 159.874L228.239 158.787L230.491 157.7C228.527 153.632 227.514 149.143 227.514 144.615H225.014ZM228.239 158.787L225.988 159.874C229.657 167.475 231.665 175.658 231.665 184.115L234.165 184.115L236.665 184.115C236.665 174.852 234.463 165.93 230.491 157.7L228.239 158.787ZM234.165 184.115H231.665C231.665 202.224 225.216 221.336 211.195 233.207L212.811 235.115L214.426 237.023C229.875 223.942 236.665 203.239 236.665 184.115H234.165ZM212.811 235.115L211.195 233.207C197.239 245.024 174.702 249.105 151.816 249.569L151.867 252.068L151.918 254.568C174.991 254.1 199.068 250.027 214.426 237.023L212.811 235.115ZM151.867 252.068H149.367V252.07H151.867H154.367V252.068H151.867ZM151.867 252.07L151.918 249.571C151.924 249.571 151.929 249.571 151.93 249.571C151.931 249.571 151.932 249.571 151.928 249.571C151.926 249.571 151.92 249.571 151.912 249.571C151.905 249.57 151.895 249.57 151.882 249.57L151.832 252.069L151.782 254.569C151.775 254.569 151.771 254.569 151.769 254.569C151.768 254.568 151.767 254.568 151.771 254.569C151.773 254.569 151.78 254.569 151.787 254.569C151.794 254.569 151.804 254.57 151.816 254.57L151.867 252.07ZM151.832 252.069L151.781 249.57C151.768 249.57 151.757 249.57 151.749 249.571C151.742 249.571 151.735 249.571 151.733 249.571C151.73 249.571 151.731 249.571 151.733 249.571C151.735 249.571 151.74 249.571 151.748 249.571L151.798 252.07L151.848 254.57C151.861 254.57 151.872 254.569 151.88 254.569C151.888 254.569 151.894 254.569 151.897 254.568C151.9 254.568 151.899 254.568 151.898 254.568C151.896 254.569 151.891 254.569 151.883 254.569L151.832 252.069ZM151.798 252.07H154.298V252.068H151.798H149.298V252.07H151.798ZM151.798 252.068L151.849 249.569C128.964 249.105 106.426 245.024 92.47 233.207L90.8545 235.115L89.239 237.023C104.597 250.027 128.674 254.1 151.747 254.568L151.798 252.068ZM90.8545 235.115L92.47 233.207C78.4493 221.336 72 202.224 72 184.115H69.5H67C67 203.239 73.79 223.942 89.239 237.023L90.8545 235.115ZM69.5 184.115L72 184.115C72 175.658 74.0076 167.475 77.6763 159.874L75.4248 158.787L73.1734 157.7C69.2012 165.93 67 174.853 67 184.115L69.5 184.115ZM75.4248 158.787L77.6763 159.874C79.9714 155.119 81.1523 149.886 81.1523 144.615H78.6523H76.1523C76.1523 149.143 75.1373 153.632 73.1734 157.7L75.4248 158.787ZM78.6523 144.615L81.1523 144.615C81.1524 111.195 108.798 83.947 145.401 79.3083L145.087 76.8281L144.773 74.348C106.217 79.2341 76.1524 108.162 76.1523 144.615L78.6523 144.615ZM145.087 76.8281L147.319 75.7031C145.641 72.3731 144.736 65.962 145.997 59.6328L143.545 59.1445L141.093 58.6562C139.667 65.8144 140.565 73.4093 142.854 77.9532L145.087 76.8281Z" fill="#131418"/>
<path d="M154.079 128.85C159.853 128.894 164.454 133.781 165.932 139.888C166.288 141.36 166.605 142.794 166.835 144.053C168.261 151.878 163.16 159.604 155.56 160.241C154.953 160.292 154.377 160.318 153.84 160.314C153.302 160.31 152.726 160.275 152.121 160.215C144.531 159.462 139.548 151.66 141.093 143.857C141.342 142.601 141.681 141.172 142.059 139.707C143.63 133.622 148.305 128.806 154.079 128.85Z" fill="#6B8FFF" stroke="#3164FF" stroke-width="3"/>
<path d="M147.573 142.07C148.374 138.967 150.817 136.315 154.022 136.339C157.226 136.364 159.629 139.053 160.383 142.168C160.555 142.879 160.71 143.579 160.823 144.2C161.566 148.28 158.918 152.439 154.784 152.786C154.477 152.812 154.179 152.825 153.896 152.823C153.613 152.821 153.316 152.803 153.008 152.772C148.881 152.363 146.296 148.164 147.101 144.095C147.224 143.476 147.39 142.779 147.573 142.07Z" fill="#2952D9"/>
<path d="M187.685 115.104C193.705 115.15 198.645 120.281 198.597 126.688C198.548 133.095 193.53 138.149 187.51 138.104C181.489 138.058 176.549 132.927 176.597 126.52C176.646 120.113 181.664 115.059 187.685 115.104Z" fill="#6B8FFF" stroke="#3164FF" stroke-width="3"/>
<circle cx="194.15" cy="119.654" r="5" transform="rotate(0.43594 194.15 119.654)" fill="#EBEDF1"/>
<path d="M120.686 114.595C126.706 114.641 131.647 119.771 131.598 126.178C131.549 132.586 126.531 137.64 120.511 137.594C114.491 137.549 109.55 132.418 109.599 126.011C109.648 119.604 114.666 114.549 120.686 114.595Z" fill="#6B8FFF" stroke="#3164FF" stroke-width="3"/>
<circle cx="127.152" cy="119.144" r="5" transform="rotate(0.43594 127.152 119.144)" fill="#EBEDF1"/>
<path d="M111.094 158.609C120.306 142.654 140.114 139.885 149.407 145.251C158.701 150.616 156.186 160.328 146.974 176.284C137.762 192.239 125.852 211.225 116.558 205.859C107.265 200.494 101.882 174.565 111.094 158.609Z" fill="#25272F" stroke="#131418" stroke-width="5"/>
<path d="M199.721 159.695C190.825 143.688 171.1 140.661 161.72 145.874C152.341 151.087 154.668 160.788 163.565 176.795C172.461 192.803 183.995 211.863 193.375 206.65C202.754 201.437 208.618 175.703 199.721 159.695Z" fill="#25272F" stroke="#131418" stroke-width="5"/>
<path d="M169.71 262.864C166.427 261.438 164.448 259.296 163.808 254.527C163.054 248.911 165.926 239.534 169.077 232.281C174.903 218.871 182.339 209.178 189.486 212.284C196.634 215.389 200.787 230.116 194.961 243.527C189.135 256.937 176.857 265.969 169.71 262.864Z" fill="#131418" stroke="#131418" stroke-width="3"/>
</g>
</svg>
