<svg width="24" height="24" viewBox="0 0 24 24" fill="none" xmlns="http://www.w3.org/2000/svg">
<path d="M10.2321 10.0194L11.5203 5.63339C11.6609 5.15459 12.3391 5.15459 12.4797 5.63339L13.7679 10.0194C13.8166 10.1851 13.9472 10.3139 14.1135 10.3602L18.271 11.5183C18.7587 11.6542 18.7587 12.3458 18.271 12.4817L14.1135 13.6398C13.9472 13.6861 13.8166 13.8149 13.7679 13.9806L12.4797 18.3666C12.3391 18.8454 11.6609 18.8454 11.5203 18.3666L10.2321 13.9806C10.1834 13.8149 10.0528 13.6861 9.8865 13.6398L5.72904 12.4817C5.24127 12.3458 5.24127 11.6542 5.72903 11.5183L9.8865 10.3602C10.0528 10.3139 10.1834 10.1851 10.2321 10.0194Z" fill="#D6E0FF" stroke="#3164FF" stroke-width="2" stroke-linejoin="round"/>
<path d="M18.7692 4.78571L19 4L19.2308 4.78571L20 5L19.2308 5.21429L19 6L18.7692 5.21429L18 5L18.7692 4.78571Z" fill="#3164FF" stroke="#3164FF" stroke-width="0.5" stroke-linejoin="round"/>
<circle cx="5" cy="19" r="1" fill="#3164FF"/>
</svg>
