<svg width="24" height="24" viewBox="0 0 24 24" fill="none" xmlns="http://www.w3.org/2000/svg">
<path d="M2 12C2 6.47715 6.47715 2 12 2C17.5228 2 22 6.47715 22 12C22 17.5228 17.5228 22 12 22C6.47715 22 2 17.5228 2 12Z" fill="#E7F4F3"/>
<path d="M15.793 8.29297C16.1835 7.90251 16.8165 7.90246 17.207 8.29297C17.5975 8.68348 17.5975 9.31652 17.207 9.70703L11.207 15.707C11.0195 15.8945 10.7652 16 10.5 16C10.2348 16 9.9805 15.8945 9.79297 15.707L6.79297 12.707C6.40244 12.3165 6.40244 11.6835 6.79297 11.293C7.1835 10.9025 7.81653 10.9025 8.20703 11.293L10.5 13.5859L15.793 8.29297Z" fill="#139487"/>
</svg>
