<svg width="24" height="24" viewBox="0 0 24 24" fill="none" xmlns="http://www.w3.org/2000/svg">
<path d="M12 2C17.5228 2 22 6.47715 22 12C22 17.5228 17.5228 22 12 22C6.47715 22 2 17.5228 2 12C2 6.47715 6.47715 2 12 2ZM12 4C7.58172 4 4 7.58172 4 12C4 16.4183 7.58172 20 12 20C16.4183 20 20 16.4183 20 12C20 7.58172 16.4183 4 12 4ZM12 7C12.5523 7 13 7.44772 13 8V11.4648L15.5547 13.168C16.0142 13.4743 16.1384 14.0952 15.832 14.5547C15.5257 15.0142 14.9048 15.1384 14.4453 14.832L11.4453 12.832C11.1671 12.6466 11 12.3344 11 12V8C11 7.44772 11.4477 7 12 7Z" fill="#131418"/>
</svg>
