<svg width="24" height="24" viewBox="0 0 24 24" fill="none" xmlns="http://www.w3.org/2000/svg">
<path d="M2 10C2 5.58172 5.58172 2 10 2H14C18.4183 2 22 5.58172 22 10V14C22 18.4183 18.4183 22 14 22H10C5.58172 22 2 18.4183 2 14V10Z" fill="#3164FF"/>
<path d="M15.7931 8.29303C16.1836 7.90251 16.8166 7.90251 17.2072 8.29303C17.5976 8.68356 17.5977 9.31659 17.2072 9.70709L11.2072 15.7071C11.0196 15.8946 10.7653 16 10.5001 16.0001C10.2349 16.0001 9.98062 15.8946 9.79309 15.7071L6.79309 12.7071C6.40257 12.3166 6.40257 11.6836 6.79309 11.293C7.18361 10.9025 7.81663 10.9025 8.20715 11.293L10.5001 13.586L15.7931 8.29303Z" fill="white"/>
</svg>
