<svg width="24" height="24" viewBox="0 0 24 24" fill="none" xmlns="http://www.w3.org/2000/svg">
<path d="M4 14V19C4 19.5523 4.44772 20 5 20H19C19.5523 20 20 19.5523 20 19V14" stroke="#131418" stroke-width="2" stroke-linecap="round"/>
<path fill-rule="evenodd" clip-rule="evenodd" d="M7.29289 8.70703C6.90237 8.31651 6.90237 7.68349 7.29289 7.29297L11.2929 3.29297C11.6834 2.90263 12.3165 2.90251 12.707 3.29297L16.707 7.29297C17.0973 7.68344 17.0973 8.31653 16.707 8.70703C16.3165 9.09752 15.6834 9.09744 15.2929 8.70703L12.9999 6.41406L12.9999 14.8184C12.9998 15.4709 12.5521 16 11.9999 16C11.4477 16 11 15.471 10.9999 14.8184L10.9999 6.41406L8.70696 8.70703C8.31647 9.09752 7.68343 9.09744 7.29289 8.70703Z" fill="#131418"/>
</svg>
