<svg width="24" height="24" viewBox="0 0 24 24" fill="none" xmlns="http://www.w3.org/2000/svg">
<path d="M17.293 5.29303C17.6836 4.90257 18.3166 4.90253 18.7071 5.29303C19.0975 5.68354 19.0975 6.31658 18.7071 6.70709L13.4141 12.0001L18.7071 17.293C19.0975 17.6835 19.0975 18.3166 18.7071 18.7071C18.3166 19.0976 17.6836 19.0976 17.293 18.7071L12.0001 13.4141L6.70709 18.7071C6.31659 19.0976 5.68356 19.0976 5.29303 18.7071C4.90251 18.3166 4.90251 17.6836 5.29303 17.293L10.586 12.0001L5.29303 6.70709C4.90251 6.31657 4.90251 5.68355 5.29303 5.29303C5.68356 4.90257 6.31659 4.90253 6.70709 5.29303L12.0001 10.586L17.293 5.29303Z" fill="currentColor"/>
</svg>
