<svg width="24" height="24" viewBox="0 0 24 24" fill="none" xmlns="http://www.w3.org/2000/svg">
<path d="M2 12C2 6.47715 6.47715 2 12 2C17.5228 2 22 6.47715 22 12C22 17.5228 17.5228 22 12 22C6.47715 22 2 17.5228 2 12Z" fill="#FEECEC"/>
<path d="M15.2931 7.29297C15.6836 6.90251 16.3166 6.90246 16.7072 7.29297C17.0976 7.68348 17.0976 8.31652 16.7072 8.70703L13.4142 12L16.7072 15.293C17.0976 15.6835 17.0976 16.3165 16.7072 16.707C16.3166 17.0975 15.6836 17.0975 15.2931 16.707L12.0001 13.4141L8.70715 16.707C8.31665 17.0975 7.68362 17.0975 7.29309 16.707C6.90257 16.3165 6.90257 15.6835 7.29309 15.293L10.5861 12L7.29309 8.70703C6.90257 8.31651 6.90257 7.68349 7.29309 7.29297C7.68362 6.90251 8.31665 6.90246 8.70715 7.29297L12.0001 10.5859L15.2931 7.29297Z" fill="#F34643"/>
</svg>
