<svg width="199" height="217" viewBox="0 0 199 217" fill="none" xmlns="http://www.w3.org/2000/svg">
<path d="M28.3578 109C26.481 109 23.9058 110.027 20.9261 112.325C18.0075 114.576 14.9673 117.845 12.2064 121.809C6.66334 129.766 2.50037 140.151 2.50037 150C2.50037 160.313 4.0015 168.247 6.61658 173.507C9.18426 178.671 12.6492 181 16.8041 181C25.8803 181 37.4105 172.897 37.4105 153C37.4105 142.487 37.2003 131.066 35.6947 122.304C34.9384 117.903 33.891 114.407 32.5306 112.074C31.2008 109.794 29.8268 109 28.3578 109Z" fill="#25272F" stroke="#131418" stroke-width="5"/>
<path d="M170.142 109C172.019 109 174.594 110.027 177.574 112.325C180.492 114.576 183.533 117.845 186.294 121.809C191.837 129.766 196 140.151 196 150C196 160.313 194.498 168.247 191.883 173.507C189.316 178.671 185.851 181 181.696 181C172.62 181 161.089 172.897 161.089 153C161.089 142.487 161.3 131.066 162.805 122.304C163.562 117.903 164.609 114.407 165.969 112.074C167.299 109.794 168.673 109 170.142 109Z" fill="#25272F" stroke="#131418" stroke-width="5"/>
<path d="M46.0001 207C46.0001 209.663 46.8883 211.649 50.0001 213.5C53.6648 215.68 61.0267 216.5 67.0001 216.5C78.0458 216.5 87.0001 214.299 87.0001 208.5C87.0001 202.701 78.0458 195.5 67.0001 195.5C55.9544 195.5 46.0001 201.201 46.0001 207Z" fill="#131418"/>
<path d="M152 207C152 209.663 151.112 211.649 148 213.5C144.335 215.68 136.974 216.5 131 216.5C119.954 216.5 111 214.299 111 208.5C111 202.701 119.954 195.5 131 195.5C142.046 195.5 152 201.201 152 207Z" fill="#131418"/>
<path d="M98.0001 2.5C102.116 2.5 102.495 10.4588 102.499 20.3145C108.23 14.2097 118.328 13.6684 121.5 15.5C125.087 17.5711 115.971 21.8908 111 30.5C110.753 30.9289 110.508 31.3349 110.27 31.7217C146.98 37.947 174.62 65.239 174.62 98.8848C174.62 103.776 175.742 108.628 177.928 113.004C181.89 120.934 184.072 129.505 184.072 138.385C184.072 157.001 177.236 176.908 162.017 189.385C146.879 201.795 122.806 205.872 99.0724 206.338V206.34C99.0603 206.34 99.0483 206.339 99.0363 206.339C99.0242 206.339 99.0122 206.34 99.0001 206.34V206.338C75.2664 205.872 51.1938 201.795 36.0558 189.385C20.8365 176.908 14.0001 157.001 14.0001 138.385C14.0001 129.505 16.1824 120.934 20.1447 113.004C22.3309 108.628 23.4523 103.776 23.4523 98.8848C23.4523 63.8203 53.4723 35.6559 92.4933 31.0469C90.4764 27.3366 89.0001 21.9768 89.0001 16.5C89.0001 6.55887 93.858 2.5 98.0001 2.5Z" fill="#25272F"/>
<path d="M102.499 20.3145L99.9991 20.3156C99.9996 21.3409 100.626 22.262 101.58 22.6392C102.533 23.0163 103.62 22.7731 104.322 22.0255L102.499 20.3145ZM121.5 15.5L122.75 13.3349L122.75 13.3349L121.5 15.5ZM111 30.5L108.835 29.25L108.835 29.25L111 30.5ZM110.27 31.7217L108.14 30.412C107.705 31.1197 107.65 31.9974 107.993 32.7541C108.336 33.5108 109.033 34.0476 109.852 34.1865L110.27 31.7217ZM177.928 113.004L180.164 111.886V111.886L177.928 113.004ZM162.017 189.385L163.602 191.318V191.318L162.017 189.385ZM99.0724 206.338L99.0233 203.838C97.662 203.865 96.5724 204.976 96.5724 206.338H99.0724ZM99.0724 206.34L99.0241 208.839C99.6954 208.852 100.344 208.595 100.823 208.125C101.302 207.654 101.572 207.011 101.572 206.34H99.0724ZM99.0363 206.339L99.085 203.839C99.0525 203.839 99.02 203.839 98.9876 203.839L99.0363 206.339ZM99.0001 206.34H96.5001C96.5001 207.011 96.7702 207.654 97.2495 208.125C97.7289 208.595 98.3771 208.852 99.0484 208.839L99.0001 206.34ZM99.0001 206.338H101.5C101.5 204.976 100.411 203.865 99.0492 203.838L99.0001 206.338ZM36.0558 189.385L34.4708 191.318H34.4708L36.0558 189.385ZM20.1447 113.004L17.9083 111.886H17.9083L20.1447 113.004ZM92.4933 31.0469L92.7865 33.5296C93.6103 33.4323 94.3322 32.9328 94.7135 32.1961C95.0948 31.4595 95.0859 30.5817 94.6897 29.8529L92.4933 31.0469ZM98.0001 2.5V5C98.0439 5 98.1281 4.94641 98.3742 5.30692C98.6997 5.78385 99.0532 6.6865 99.3351 8.17619C99.8941 11.1298 99.9968 15.3481 99.9991 20.3156L102.499 20.3145L104.999 20.3133C104.997 15.4251 104.908 10.7362 104.248 7.24652C103.92 5.51455 103.407 3.81153 102.504 2.48819C101.521 1.04843 100.014 0 98.0001 0V2.5ZM102.499 20.3145L104.322 22.0255C106.721 19.4693 110.133 17.9932 113.412 17.3898C115.036 17.0908 116.559 17.0199 117.811 17.114C119.121 17.2125 119.921 17.4749 120.25 17.6651L121.5 15.5L122.75 13.3349C121.493 12.6093 119.841 12.2525 118.186 12.1281C116.474 11.9993 114.519 12.1019 112.506 12.4724C108.51 13.2079 104.008 15.0548 100.676 18.6034L102.499 20.3145ZM121.5 15.5L120.25 17.6651C120.356 17.7261 119.998 17.5495 119.859 16.9994C119.732 16.4964 119.927 16.211 119.849 16.362C119.642 16.7647 119.015 17.4764 117.705 18.767C115.338 21.098 111.527 24.5874 108.835 29.25L111 30.5L113.165 31.75C115.444 27.8034 118.676 24.8284 121.214 22.3294C122.355 21.205 123.646 19.9104 124.294 18.6516C124.644 17.9719 125.002 16.942 124.706 15.7727C124.398 14.5563 123.541 13.7917 122.75 13.3349L121.5 15.5ZM111 30.5L108.835 29.25C108.603 29.6525 108.37 30.0376 108.14 30.412L110.27 31.7217L112.399 33.0314C112.645 32.6323 112.902 32.2052 113.165 31.75L111 30.5ZM110.27 31.7217L109.852 34.1865C145.677 40.2617 172.12 66.754 172.12 98.8848H174.62H177.12C177.12 63.7239 148.283 35.6323 110.688 29.2569L110.27 31.7217ZM174.62 98.8848H172.12C172.12 104.156 173.328 109.392 175.691 114.121L177.928 113.004L180.164 111.886C178.155 107.865 177.12 103.396 177.12 98.8848H174.62ZM177.928 113.004L175.691 114.121C179.494 121.732 181.572 129.923 181.572 138.385H184.072H186.572C186.572 129.088 184.286 120.136 180.164 111.886L177.928 113.004ZM184.072 138.385H181.572C181.572 156.467 174.924 175.571 160.432 187.451L162.017 189.385L163.602 191.318C179.548 178.246 186.572 157.535 186.572 138.385H184.072ZM162.017 189.385L160.432 187.451C145.991 199.29 122.673 203.374 99.0233 203.838L99.0724 206.338L99.1215 208.837C122.939 208.37 147.767 204.299 163.602 191.318L162.017 189.385ZM99.0724 206.338H96.5724V206.34H99.0724H101.572V206.338H99.0724ZM99.0724 206.34L99.1207 203.84C99.127 203.84 99.1316 203.841 99.1332 203.841C99.1344 203.841 99.1349 203.841 99.1314 203.841C99.129 203.84 99.1224 203.84 99.1153 203.84C99.1078 203.84 99.0973 203.84 99.085 203.839L99.0363 206.339L98.9876 208.838C98.9813 208.838 98.9768 208.838 98.9753 208.838C98.9742 208.838 98.9736 208.838 98.9773 208.838C98.9797 208.838 98.9863 208.838 98.9935 208.839C99.0011 208.839 99.0117 208.839 99.0241 208.839L99.0724 206.34ZM99.0363 206.339L98.9876 203.839C98.9753 203.84 98.9647 203.84 98.9572 203.84C98.9501 203.84 98.9435 203.84 98.9411 203.841C98.9376 203.841 98.9381 203.841 98.9393 203.841C98.9409 203.841 98.9455 203.84 98.9518 203.84L99.0001 206.34L99.0484 208.839C99.0608 208.839 99.0714 208.839 99.079 208.839C99.0862 208.838 99.0928 208.838 99.0952 208.838C99.0989 208.838 99.0984 208.838 99.0972 208.838C99.0957 208.838 99.0912 208.838 99.085 208.838L99.0363 206.339ZM99.0001 206.34H101.5V206.338H99.0001H96.5001V206.34H99.0001ZM99.0001 206.338L99.0492 203.838C75.3997 203.374 52.082 199.29 37.6407 187.451L36.0558 189.385L34.4708 191.318C50.3057 204.299 75.1331 208.37 98.951 208.837L99.0001 206.338ZM36.0558 189.385L37.6407 187.451C23.1487 175.571 16.5001 156.467 16.5001 138.385H14.0001H11.5001C11.5001 157.535 18.5243 178.246 34.4708 191.318L36.0558 189.385ZM14.0001 138.385H16.5001C16.5001 129.923 18.5784 121.732 22.381 114.121L20.1447 113.004L17.9083 111.886C13.7864 120.136 11.5001 129.088 11.5001 138.385H14.0001ZM20.1447 113.004L22.381 114.121C24.7442 109.392 25.9523 104.156 25.9523 98.8848H23.4523H20.9523C20.9523 103.396 19.9176 107.865 17.9083 111.886L20.1447 113.004ZM23.4523 98.8848H25.9523C25.9523 65.4055 54.6808 38.0305 92.7865 33.5296L92.4933 31.0469L92.2 28.5641C52.2639 33.2813 20.9523 62.2351 20.9523 98.8848H23.4523ZM92.4933 31.0469L94.6897 29.8529C92.8791 26.522 91.5001 21.5747 91.5001 16.5H89.0001H86.5001C86.5001 22.3789 88.0737 28.1512 90.2968 32.2409L92.4933 31.0469ZM89.0001 16.5H91.5001C91.5001 7.2841 95.8136 5 98.0001 5V2.5V0C91.9024 0 86.5001 5.83365 86.5001 16.5H89.0001Z" fill="#131418"/>
<circle cx="65.0001" cy="94.5" r="11.5" fill="#6B8FFF" stroke="#3164FF" stroke-width="3"/>
<circle cx="134" cy="94.5" r="11.5" fill="#6B8FFF" stroke="#3164FF" stroke-width="3"/>
<circle cx="72.0001" cy="87.5" r="5" fill="#EBEDF1"/>
<circle cx="141" cy="87.5" r="5" fill="#EBEDF1"/>
<path d="M99.5001 97C99.6312 97 99.7634 97.0013 99.8956 97.0029C105.851 97.0766 111.176 101.106 112.854 106.817C114.148 111.223 110.937 115.743 106.12 116.433C103.8 116.764 101.454 117 99.5001 117C97.5458 117 95.1998 116.764 92.88 116.433C88.0632 115.743 84.8526 111.223 86.1466 106.817C87.8246 101.106 93.149 97.0766 99.1046 97.0029C99.2368 97.0013 99.369 97 99.5001 97Z" fill="#6B8FFF" stroke="#3164FF" stroke-width="3"/>
<mask id="path-12-inside-1_73_11" fill="white">
<path d="M99.5001 159.5C127.943 159.5 151 174.275 151 192.5C151 197.143 147.4 200.788 143.003 202.279C129.66 206.802 114.19 208.542 99.1223 208.838C99.1216 208.838 99.121 208.838 99.1207 208.837C99.1204 208.836 99.1198 208.836 99.1191 208.836C99.1075 208.836 99.0958 208.838 99.0841 208.838C99.0825 208.838 99.0809 208.839 99.0792 208.839C99.0716 208.839 99.0603 208.84 99.048 208.84C99.0441 208.84 99.0402 208.839 99.0363 208.839C99.0324 208.839 99.0284 208.84 99.0245 208.84C99.0122 208.84 99.0009 208.839 98.9933 208.839C98.9912 208.839 98.9893 208.838 98.9874 208.838C98.9757 208.838 98.964 208.836 98.9523 208.836C98.9517 208.836 98.9513 208.836 98.9513 208.837C98.9513 208.837 98.9509 208.838 98.9503 208.838C84.4867 208.554 69.6514 206.94 56.6833 202.809C51.9502 201.302 48.0001 197.467 48.0001 192.5C48.0001 174.275 71.0575 159.5 99.5001 159.5Z"/>
</mask>
<path d="M99.5001 159.5C127.943 159.5 151 174.275 151 192.5C151 197.143 147.4 200.788 143.003 202.279C129.66 206.802 114.19 208.542 99.1223 208.838C99.1216 208.838 99.121 208.838 99.1207 208.837C99.1204 208.836 99.1198 208.836 99.1191 208.836C99.1075 208.836 99.0958 208.838 99.0841 208.838C99.0825 208.838 99.0809 208.839 99.0792 208.839C99.0716 208.839 99.0603 208.84 99.048 208.84C99.0441 208.84 99.0402 208.839 99.0363 208.839C99.0324 208.839 99.0284 208.84 99.0245 208.84C99.0122 208.84 99.0009 208.839 98.9933 208.839C98.9912 208.839 98.9893 208.838 98.9874 208.838C98.9757 208.838 98.964 208.836 98.9523 208.836C98.9517 208.836 98.9513 208.836 98.9513 208.837C98.9513 208.837 98.9509 208.838 98.9503 208.838C84.4867 208.554 69.6514 206.94 56.6833 202.809C51.9502 201.302 48.0001 197.467 48.0001 192.5C48.0001 174.275 71.0575 159.5 99.5001 159.5Z" fill="#6B8FFF"/>
<path d="M99.0841 208.838L99.0608 203.838L98.9996 203.838L98.9384 203.84L99.0841 208.838ZM99.0792 208.839L99.2189 213.837L99.2192 213.837L99.0792 208.839ZM99.048 208.84L99.1437 213.839L99.1446 213.839L99.048 208.84ZM99.0363 208.839L98.9639 213.838L99.0363 213.839L99.1086 213.838L99.0363 208.839ZM99.0245 208.84L98.9279 213.839L98.9288 213.839L99.0245 208.84ZM98.9933 208.839L98.8533 213.837L98.8536 213.837L98.9933 208.839ZM98.9874 208.838L99.1341 203.84L99.0734 203.838L99.0127 203.838L98.9874 208.838ZM99.1191 208.836L99.2496 213.834L99.1191 208.836ZM98.9503 208.838L98.8521 213.837L98.9503 208.838ZM56.6833 202.809L55.1659 207.573L56.6833 202.809ZM99.1223 208.838L99.2205 213.837L99.1223 208.838ZM98.9523 208.836L99.0808 203.838L98.9523 208.836ZM99.5001 159.5V164.5C112.911 164.5 124.818 167.993 133.219 173.375C141.674 178.793 146 185.673 146 192.5H151H156C156 181.101 148.798 171.481 138.614 164.956C128.374 158.395 114.532 154.5 99.5001 154.5V159.5ZM143.003 202.279L141.398 197.543C128.736 201.836 113.836 203.548 99.0241 203.839L99.1223 208.838L99.2205 213.837C114.544 213.536 130.585 211.769 144.609 207.014L143.003 202.279ZM99.1191 208.836L98.9887 203.838C98.898 203.84 98.8252 203.844 98.7841 203.847C98.7631 203.848 98.7463 203.85 98.7376 203.85C98.7332 203.851 98.7296 203.851 98.7283 203.851C98.7258 203.851 98.7275 203.851 98.7282 203.851C98.7303 203.851 98.7412 203.85 98.7557 203.849C98.7706 203.848 98.7929 203.847 98.8202 203.845C98.8738 203.842 98.9577 203.838 99.0608 203.838L99.0841 208.838L99.1074 213.838C99.2164 213.837 99.3061 213.833 99.3655 213.83C99.4223 213.827 99.4678 213.824 99.4751 213.823C99.4772 213.823 99.4804 213.823 99.4794 213.823C99.4794 213.823 99.4788 213.823 99.478 213.823C99.4772 213.823 99.476 213.823 99.4744 213.823C99.4687 213.824 99.4547 213.825 99.4366 213.826C99.4015 213.828 99.3344 213.832 99.2496 213.834L99.1191 208.836ZM99.0841 208.838L98.9384 203.84C98.8276 203.843 98.7242 203.85 98.6292 203.859C98.5343 203.867 98.4468 203.878 98.3678 203.889C98.2889 203.901 98.2171 203.913 98.1535 203.925C98.09 203.937 98.0331 203.949 97.9841 203.96C97.9351 203.971 97.8923 203.982 97.8571 203.991C97.8219 204 97.7922 204.007 97.7699 204.014C97.7479 204.02 97.7303 204.024 97.7207 204.027C97.7157 204.029 97.7117 204.03 97.7098 204.03C97.7088 204.031 97.708 204.031 97.7077 204.031C97.707 204.031 97.7079 204.031 97.7079 204.031C97.7085 204.031 97.7113 204.03 97.7149 204.029C97.7187 204.028 97.7242 204.026 97.7309 204.024C97.744 204.021 97.7645 204.015 97.7896 204.008C97.8148 204.001 97.847 203.993 97.8845 203.984C97.9221 203.975 97.9665 203.964 98.0167 203.953C98.0669 203.942 98.1242 203.931 98.1875 203.919C98.2508 203.908 98.3212 203.896 98.3979 203.886C98.5509 203.864 98.7332 203.847 98.9393 203.841L99.0792 208.839L99.2192 213.837C99.4256 213.831 99.6084 213.813 99.7618 213.792C99.8387 213.782 99.9093 213.77 99.9729 213.758C100.036 213.747 100.094 213.735 100.144 213.724C100.195 213.713 100.239 213.703 100.277 213.693C100.315 213.684 100.347 213.676 100.373 213.669C100.398 213.662 100.419 213.656 100.432 213.653C100.439 213.651 100.444 213.649 100.448 213.648C100.452 213.647 100.455 213.646 100.456 213.646C100.456 213.646 100.457 213.646 100.456 213.646C100.456 213.646 100.455 213.646 100.454 213.646C100.452 213.647 100.448 213.648 100.443 213.649C100.434 213.652 100.417 213.657 100.395 213.663C100.373 213.669 100.343 213.677 100.308 213.686C100.273 213.694 100.23 213.705 100.182 213.716C100.133 213.727 100.076 213.739 100.013 213.751C99.9495 213.763 99.878 213.775 99.7992 213.786C99.7204 213.798 99.6331 213.809 99.5384 213.817C99.4436 213.826 99.3405 213.833 99.2298 213.836L99.0841 208.838ZM99.0792 208.839L98.9396 203.841C98.9275 203.841 98.9174 203.841 98.9105 203.842C98.9035 203.842 98.8978 203.842 98.8945 203.842C98.8914 203.842 98.8882 203.842 98.888 203.842C98.8869 203.843 98.8877 203.843 98.889 203.842C98.8916 203.842 98.8991 203.842 98.9093 203.842C98.9196 203.841 98.934 203.841 98.9513 203.841L99.048 208.84L99.1446 213.839C99.1902 213.838 99.2269 213.837 99.2418 213.836C99.2457 213.836 99.2491 213.836 99.2506 213.836C99.2528 213.836 99.252 213.836 99.2513 213.836C99.2511 213.836 99.2373 213.836 99.2189 213.837L99.0792 208.839ZM99.048 208.84L98.9523 203.841C99.0776 203.838 99.1887 203.841 99.2822 203.845C99.3291 203.848 99.3723 203.85 99.4112 203.853C99.45 203.856 99.4853 203.859 99.5162 203.862C99.5471 203.865 99.5745 203.868 99.5976 203.87C99.6206 203.873 99.6403 203.875 99.6556 203.877C99.6708 203.879 99.683 203.881 99.6906 203.882C99.6944 203.882 99.6975 203.883 99.6995 203.883C99.7005 203.883 99.7013 203.883 99.7018 203.883C99.7023 203.883 99.7027 203.883 99.7027 203.883C99.7031 203.883 99.7016 203.883 99.7002 203.883C99.6985 203.883 99.6956 203.882 99.692 203.882C99.6849 203.881 99.6731 203.879 99.6584 203.877C99.6436 203.876 99.6244 203.873 99.6018 203.871C99.5793 203.868 99.5523 203.865 99.5219 203.862C99.4915 203.859 99.4568 203.856 99.4184 203.853C99.38 203.85 99.3373 203.848 99.2909 203.845C99.1985 203.841 99.0883 203.838 98.9639 203.839L99.0363 208.839L99.1086 213.838C98.9852 213.84 98.876 213.837 98.7845 213.832C98.6933 213.828 98.6157 213.821 98.5564 213.816C98.5265 213.813 98.5001 213.81 98.478 213.807C98.4559 213.805 98.4372 213.803 98.4229 213.801C98.4087 213.799 98.3973 213.798 98.3908 213.797C98.385 213.796 98.3797 213.795 98.3816 213.796C98.3817 213.796 98.3834 213.796 98.3855 213.796C98.3877 213.796 98.391 213.797 98.3951 213.797C98.4031 213.798 98.4159 213.8 98.4316 213.802C98.4622 213.806 98.5121 213.812 98.5739 213.817C98.6361 213.823 98.7167 213.83 98.8108 213.834C98.9053 213.839 99.0174 213.841 99.1437 213.839L99.048 208.84ZM99.0363 208.839L99.1086 203.839C98.9842 203.838 98.874 203.841 98.7816 203.845C98.7352 203.848 98.6925 203.85 98.6541 203.853C98.6157 203.856 98.581 203.859 98.5506 203.862C98.5202 203.865 98.4932 203.868 98.4707 203.871C98.4481 203.873 98.4289 203.876 98.4141 203.877C98.3994 203.879 98.3876 203.881 98.3805 203.882C98.3769 203.882 98.374 203.883 98.3723 203.883C98.3709 203.883 98.3694 203.883 98.3698 203.883C98.3699 203.883 98.3702 203.883 98.3707 203.883C98.3712 203.883 98.3721 203.883 98.373 203.883C98.375 203.883 98.3781 203.882 98.3819 203.882C98.3895 203.881 98.4017 203.879 98.4169 203.877C98.4322 203.875 98.4519 203.873 98.4749 203.87C98.498 203.868 98.5254 203.865 98.5563 203.862C98.5873 203.859 98.6225 203.856 98.6614 203.853C98.7003 203.85 98.7434 203.848 98.7903 203.845C98.8838 203.841 98.9949 203.838 99.1202 203.841L99.0245 208.84L98.9288 213.839C99.0551 213.841 99.1672 213.839 99.2617 213.834C99.3558 213.83 99.4364 213.823 99.4986 213.817C99.5604 213.812 99.6103 213.806 99.6409 213.802C99.6566 213.8 99.6694 213.798 99.6774 213.797C99.6815 213.797 99.6848 213.796 99.687 213.796C99.6891 213.796 99.6908 213.796 99.691 213.796C99.6928 213.795 99.6875 213.796 99.6817 213.797C99.6752 213.798 99.6638 213.799 99.6496 213.801C99.6353 213.803 99.6166 213.805 99.5945 213.807C99.5724 213.81 99.546 213.813 99.5161 213.816C99.4568 213.821 99.3792 213.828 99.288 213.832C99.1966 213.837 99.0873 213.84 98.9639 213.838L99.0363 208.839ZM99.0245 208.84L99.1212 203.841C99.1385 203.841 99.1529 203.841 99.1632 203.842C99.1734 203.842 99.1809 203.842 99.1836 203.842C99.1848 203.843 99.1856 203.843 99.1846 203.842C99.1843 203.842 99.1811 203.842 99.178 203.842C99.1747 203.842 99.169 203.842 99.162 203.842C99.1551 203.841 99.145 203.841 99.1329 203.841L98.9933 208.839L98.8536 213.837C98.8353 213.836 98.8214 213.836 98.8212 213.836C98.8205 213.836 98.8197 213.836 98.822 213.836C98.8234 213.836 98.8268 213.836 98.8307 213.836C98.8456 213.837 98.8823 213.838 98.9279 213.839L99.0245 208.84ZM98.9933 208.839L99.1332 203.841C99.2977 203.845 99.4438 203.858 99.5672 203.872C99.6291 203.879 99.6861 203.887 99.7377 203.895C99.7892 203.902 99.8359 203.91 99.8772 203.918C99.9185 203.925 99.9552 203.932 99.9864 203.939C100.018 203.945 100.044 203.951 100.066 203.955C100.087 203.96 100.104 203.964 100.115 203.967C100.121 203.968 100.126 203.969 100.129 203.97C100.133 203.971 100.135 203.971 100.136 203.971C100.136 203.971 100.137 203.972 100.136 203.972C100.136 203.971 100.136 203.971 100.135 203.971C100.134 203.971 100.131 203.97 100.127 203.969C100.119 203.967 100.105 203.964 100.087 203.96C100.069 203.956 100.045 203.951 100.016 203.945C99.9876 203.939 99.9526 203.932 99.9126 203.924C99.8726 203.917 99.8261 203.908 99.7743 203.9C99.7224 203.892 99.6638 203.883 99.5994 203.875C99.5351 203.868 99.4638 203.86 99.3864 203.854C99.309 203.848 99.2247 203.843 99.1341 203.84L98.9874 208.838L98.8407 213.836C98.7504 213.833 98.6663 213.828 98.5891 213.822C98.512 213.816 98.441 213.808 98.3768 213.8C98.3127 213.793 98.2544 213.784 98.2027 213.776C98.1511 213.768 98.1049 213.759 98.0651 213.752C98.0254 213.745 97.9906 213.737 97.9621 213.731C97.9337 213.726 97.9097 213.72 97.8919 213.716C97.8744 213.712 97.8605 213.709 97.8532 213.707C97.8494 213.706 97.8464 213.706 97.8452 213.705C97.8445 213.705 97.844 213.705 97.844 213.705C97.8438 213.705 97.8443 213.705 97.8447 213.705C97.8456 213.706 97.8482 213.706 97.8516 213.707C97.855 213.708 97.8599 213.709 97.8658 213.71C97.8774 213.713 97.895 213.717 97.9164 213.722C97.9379 213.726 97.965 213.732 97.9964 213.739C98.0279 213.745 98.0648 213.752 98.1063 213.76C98.1479 213.767 98.1949 213.775 98.2466 213.783C98.2984 213.791 98.3557 213.798 98.4179 213.806C98.5418 213.82 98.6883 213.832 98.8533 213.837L98.9933 208.839ZM98.9874 208.838L99.0127 203.838C99.1152 203.838 99.1985 203.842 99.2517 203.845C99.2787 203.847 99.3008 203.848 99.3156 203.849C99.3298 203.85 99.3406 203.851 99.3425 203.851C99.343 203.851 99.3448 203.851 99.3422 203.851C99.3408 203.851 99.3371 203.851 99.3326 203.85C99.3238 203.85 99.3069 203.848 99.2857 203.847C99.2445 203.844 99.1716 203.84 99.0808 203.838L98.9523 208.836L98.8237 213.834C98.7388 213.832 98.6717 213.828 98.6364 213.826C98.6182 213.825 98.6042 213.824 98.5983 213.823C98.5969 213.823 98.5863 213.822 98.5972 213.823C98.6041 213.824 98.6494 213.827 98.7056 213.83C98.7646 213.833 98.8538 213.837 98.9622 213.838L98.9874 208.838ZM98.9503 208.838L99.0485 203.839C84.8363 203.56 70.5321 201.973 58.2007 198.045L56.6833 202.809L55.1659 207.573C68.7707 211.907 84.1371 213.548 98.8521 213.837L98.9503 208.838ZM48.0001 192.5H53.0001C53.0001 185.673 57.3263 178.793 65.7817 173.375C74.1818 167.993 86.0894 164.5 99.5001 164.5V159.5V154.5C84.4682 154.5 70.6258 158.395 60.3865 164.956C50.2026 171.481 43.0001 181.101 43.0001 192.5H48.0001ZM99.1207 208.837L103.593 206.601C102.733 204.882 100.949 203.786 98.9887 203.838L99.1191 208.836L99.2496 213.834C97.2905 213.885 95.5075 212.791 94.6486 211.073L99.1207 208.837ZM151 192.5H146C146 194.305 144.512 196.487 141.398 197.543L143.003 202.279L144.609 207.014C150.288 205.088 156 199.98 156 192.5H151ZM98.9513 208.837H93.9513C93.9513 206.044 96.2433 203.784 99.0485 203.839L98.9503 208.838L98.8521 213.837C101.658 213.892 103.951 211.631 103.951 208.837H98.9513ZM56.6833 202.809L58.2007 198.045C54.7218 196.937 53.0001 194.538 53.0001 192.5H48.0001H43.0001C43.0001 200.397 49.1787 205.666 55.1659 207.573L56.6833 202.809ZM99.1223 208.838L99.0241 203.839C100.963 203.801 102.735 204.885 103.593 206.601L99.1207 208.837L94.6486 211.073C95.507 212.79 97.2805 213.875 99.2205 213.837L99.1223 208.838ZM98.9523 208.836L99.0808 203.838C96.2494 203.765 93.9513 206.045 93.9513 208.837H98.9513H103.951C103.951 211.628 101.654 213.907 98.8237 213.834L98.9523 208.836Z" fill="#3164FF" mask="url(#path-12-inside-1_73_11)"/>
</svg>
